<svg id="Layer_1" data-name="Layer 1" xmlns="http://www.w3.org/2000/svg" viewBox="0 0 1438 697"><path d="M1033,518.77H970.76V327.49s62.25,4.07,62.25,41Z"/><path d="M974.26,141.06h152c43.16,0,120.8,14.69,120.8,117.51,0,104.92-100.72,109.12-100.72,109.12l95.15,151.08h-62.9L1096,388.67V327.49s90.23,12.92,90.23-71c0-63-63-63-63-63l-117.51-4.19S974.26,180.93,974.26,141.06Z"/><path d="M1089.67.47H406.53l173.23,132.2L0,348.8,584,569.13,409,697l680.67.13c192.38,0,348.33-156,348.33-348.33S1282.05.47,1089.67.47Zm0,619C940.17,619.49,819,498.3,819,348.8S940.17,78.11,1089.67,78.11,1360.36,199.3,1360.36,348.8,1239.17,619.49,1089.67,619.49Z"/></svg>