<?xml version="1.0" encoding="utf-8"?>
<!-- Generator: Adobe Illustrator 26.0.2, SVG Export Plug-In . SVG Version: 6.00 Build 0)  -->
<svg version="1.1" xmlns="http://www.w3.org/2000/svg" xmlns:xlink="http://www.w3.org/1999/xlink" x="0px" y="0px"
	 viewBox="0 0 680.31494 226.77165" style="enable-background:new 0 0 680.31494 226.77165;" xml:space="preserve">
<style type="text/css">
	.st0{fill:#1D1D1B;}
	.st1{fill:#C5C2C6;}
	.st2{fill:url(#Burn_00000040550821575389457330000010361935272992322480_);}
	.st3{fill:url(#SVGID_1_);}
	.st4{fill:url(#SVGID_00000022535000401217153450000014032093518622493618_);}
	.st5{fill:#969696;}
	.st6{fill:#6194C3;}
	.st7{fill:#FFFFFF;}
	.st8{fill:url(#SVGID_00000163790986365749846950000018055603122952885405_);}
	.st9{fill:url(#SVGID_00000085235348141537746710000003289629839931446451_);}
	.st10{fill:url(#SVGID_00000115475716548464502770000016365644134450334887_);}
	.st11{fill:url(#SVGID_00000048486352749953151600000007774954124755344798_);}
	.st12{fill:url(#SVGID_00000090973659896155786190000001373107223616613020_);}
	.st13{fill:url(#SVGID_00000175322646797300059940000007042016198240432816_);}
	.st14{fill:url(#SVGID_00000135687211954793757900000012508763659297805441_);}
	.st15{fill:url(#Burn_00000039845891125642373130000002076589936266309553_);}
</style>
<g id="rexLaunchpad">
</g>
<g id="rexMarket">
</g>
<g id="rexBank">
</g>
<g id="rexLP">
	<g id="rexLP-Color">
		<g>
			<path class="st5" d="M146.03053,120.06537v7.13965c-0.64062-0.12012-1.2207-0.17969-1.74023-0.17969
				c-2.91992,0-5.2002,0.84961-6.83984,2.5498c-1.64062,1.7002-2.45996,4.15039-2.45996,7.34961v15.54004h-7.50001v-32.04004
				h7.13966v4.68066C136.7903,121.74506,140.5901,120.06537,146.03053,120.06537z"/>
			<path class="st5" d="M182.09108,138.84467h-25.13965c0.43945,2.36133,1.58984,4.23047,3.4502,5.61035
				c1.85938,1.37988,4.16992,2.07031,6.92969,2.07031c3.51953,0,6.41992-1.16016,8.7002-3.48047l4.01953,4.62012
				c-1.43945,1.7207-3.26074,3.02051-5.45996,3.90039c-2.2002,0.87988-4.67969,1.31934-7.43945,1.31934
				c-3.52051,0-6.62109-0.69922-9.30078-2.09961c-2.67969-1.39941-4.75-3.34961-6.20996-5.84961s-2.18945-5.33008-2.18945-8.49023
				c0-3.12012,0.70898-5.92969,2.12988-8.43066c1.41895-2.49902,3.38965-4.44922,5.91016-5.84961
				c2.51953-1.39941,5.35938-2.09961,8.51953-2.09961c3.12012,0,5.91016,0.68945,8.37012,2.06934s4.37988,3.32129,5.75977,5.82031
				c1.37988,2.5,2.07031,5.39062,2.07031,8.66992C182.2112,137.14545,182.17116,137.8847,182.09108,138.84467z M159.92116,128.19525
				c-1.66016,1.41992-2.66992,3.31055-3.03027,5.66992h18.18066c-0.32129-2.31934-1.30078-4.2002-2.94043-5.64062
				c-1.64062-1.43945-3.68066-2.15918-6.12012-2.15918C163.61159,126.06537,161.58034,126.77533,159.92116,128.19525z"/>
			<path class="st5" d="M208.91042,152.46478l-8.2207-11.09961l-8.2793,11.09961h-8.28027l12.47949-16.25977l-11.93945-15.78027
				h8.33984l7.86035,10.5l7.85938-10.5h8.10059l-12,15.66016l12.54004,16.37988H208.91042z"/>
			<path class="st6" d="M225.2903,110.46478h3.05957v39.24023h24.17969v2.75977H225.2903V110.46478z"/>
			<path class="st6" d="M287.86938,114.21478c3,2.50098,4.5,5.9707,4.5,10.41016c0,4.40039-1.5,7.85059-4.5,10.34961
				c-3,2.50098-7.13965,3.75-12.41992,3.75h-12v13.74023h-3.05957v-42h15.05957
				C280.72974,110.46478,284.86938,111.71576,287.86938,114.21478z M285.70923,133.02533
				c2.36035-1.95996,3.54004-4.75977,3.54004-8.40039c0-3.63965-1.17969-6.4502-3.54004-8.42969
				c-2.36035-1.98047-5.78027-2.9707-10.25977-2.9707h-12v22.74023h12C279.92896,135.96478,283.34888,134.98529,285.70923,133.02533
				z"/>
		</g>
		<g id="rexLp-Symbol">
			<polygon class="st1" points="164.70142,100.65228 164.70142,94.31767 147.80913,94.31767 147.80913,90.0946 164.70142,90.0946 
				164.70142,83.75999 175.25911,92.20613 			"/>
			<polygon class="st1" points="180.54018,77.41007 197.43246,77.41007 197.43246,81.63315 180.54018,81.63315 180.54018,87.96776 
				169.9825,79.52161 180.54018,71.07547 			"/>
			<linearGradient id="SVGID_1_" gradientUnits="userSpaceOnUse" x1="134.99043" y1="77.2745" x2="164.85475" y2="107.13882">
				<stop  offset="0" style="stop-color:#6194C3"/>
				<stop  offset="1" style="stop-color:#B5CBE2"/>
			</linearGradient>
			<path class="st3" d="M149.92067,113.3215c-11.66202,0-21.11536-9.45335-21.11536-21.11536s9.45334-21.11536,21.11536-21.11536
				c6.6474-0.005,12.90785,3.12523,16.89229,8.44614h-5.72226c-6.99753-6.1702-17.67209-5.49953-23.84229,1.498
				c-6.17021,6.99753-5.49953,17.67209,1.498,23.84229c6.38515,5.63023,15.96217,5.62943,22.34639-0.00186h5.72226
				C162.83018,110.19685,156.5688,113.32715,149.92067,113.3215z"/>
			
				<linearGradient id="SVGID_00000026869971283271099200000013781412314002796420_" gradientUnits="userSpaceOnUse" x1="180.38791" y1="64.58998" x2="210.25117" y2="94.45325">
				<stop  offset="0" style="stop-color:#6194C3"/>
				<stop  offset="1" style="stop-color:#B5CBE2"/>
			</linearGradient>
			<path style="fill:url(#SVGID_00000026869971283271099200000013781412314002796420_);" d="M178.42865,92.19083h5.71803
				c6.99701,6.17079,17.67163,5.501,23.84242-1.49602c6.17078-6.99702,5.50099-17.67163-1.49602-23.84241
				c-6.38469-5.63076-15.96172-5.63076-22.34641,0h-5.71803c3.98444-5.32091,10.24489-8.45114,16.89229-8.44614
				c11.662,0,21.11536,9.45335,21.11536,21.11536s-9.45335,21.11536-21.11536,21.11536
				C188.67354,100.64197,182.41309,97.51174,178.42865,92.19083z"/>
		</g>
	</g>
</g>
<g id="Ricochet">
</g>
</svg>
