<?xml version="1.0" encoding="utf-8"?>
<!-- Generator: Adobe Illustrator 26.0.2, SVG Export Plug-In . SVG Version: 6.00 Build 0)  -->
<svg version="1.1" xmlns="http://www.w3.org/2000/svg" xmlns:xlink="http://www.w3.org/1999/xlink" x="0px" y="0px"
	 viewBox="0 0 680.31494 226.77165" style="enable-background:new 0 0 680.31494 226.77165;" xml:space="preserve">
<style type="text/css">
	.st0{fill:#1D1D1B;}
	.st1{fill:#C5C2C6;}
	.st2{fill:url(#Burn_00000044869640718757110060000006792821666401340060_);}
	.st3{fill:url(#SVGID_1_);}
	.st4{fill:url(#SVGID_00000076594089353270541520000009103826418140218762_);}
	.st5{fill:#969696;}
	.st6{fill:#6194C3;}
	.st7{fill:#FFFFFF;}
	.st8{fill:url(#SVGID_00000027581022894643006250000005195302758789623450_);}
	.st9{fill:url(#SVGID_00000009556605771114900640000006977608288787741849_);}
	.st10{fill:url(#SVGID_00000091704467913943300490000003038554802831145139_);}
	.st11{fill:url(#SVGID_00000153685129002144233410000017213969445331863711_);}
	.st12{fill:url(#SVGID_00000070804092509811771480000005510505166872089791_);}
	.st13{fill:url(#SVGID_00000088113780221054597930000017952090458520207795_);}
	.st14{fill:url(#SVGID_00000044161812298008064970000003837123207689803680_);}
	.st15{fill:url(#Burn_00000183244671728732044370000001454386307147416457_);}
</style>
<g id="rexLaunchpad">
</g>
<g id="rexMarket">
</g>
<g id="rexBank">
</g>
<g id="rexLP">
</g>
<g id="Ricochet">
	<g id="Ricochet-Color">
		<g>
			<path class="st5" d="M155.69069,160.34494l-8.58008-12.2998c-0.36035,0.04004-0.90039,0.05957-1.62012,0.05957H136.011v12.24023
				h-7.80078v-42h17.28027c3.63965,0,6.81055,0.59961,9.50977,1.7998c2.7002,1.2002,4.77051,2.91992,6.20996,5.16016
				c1.44043,2.24023,2.16016,4.90039,2.16016,7.97949c0,3.16016-0.77051,5.87988-2.30957,8.16016
				c-1.54102,2.28027-3.75,3.98047-6.62988,5.10059l9.65918,13.7998H155.69069z M152.87038,127.10471
				c-1.76074-1.44043-4.34082-2.16016-7.74023-2.16016H136.011v16.74023h9.11914c3.39941,0,5.97949-0.72949,7.74023-2.19043
				c1.75977-1.45898,2.64062-3.5293,2.64062-6.20996C155.511,130.60568,154.63014,128.54514,152.87038,127.10471z"/>
			<path class="st5" d="M171.71022,121.73459c-0.9209-0.85938-1.37988-1.92969-1.37988-3.20996
				c0-1.2793,0.45898-2.34961,1.37988-3.20996c0.91895-0.85938,2.05957-1.29004,3.41992-1.29004
				c1.35938,0,2.49902,0.41113,3.41992,1.23047c0.91992,0.82031,1.37988,1.85059,1.37988,3.08984
				c0,1.31934-0.4502,2.42969-1.34961,3.33008c-0.90039,0.89941-2.05078,1.34961-3.4502,1.34961
				C173.76979,123.02463,172.62917,122.59494,171.71022,121.73459z M171.34987,128.3049h7.5v32.04004h-7.5V128.3049z"/>
			<path class="st5" d="M194.4485,158.66428c-2.63965-1.39941-4.7002-3.34961-6.17969-5.84961
				c-1.48047-2.49902-2.21973-5.33008-2.21973-8.49023c0-3.15918,0.73926-5.97949,2.21973-8.45996
				c1.47949-2.47949,3.5293-4.41895,6.15039-5.81934c2.61914-1.40039,5.60938-2.10059,8.96973-2.10059
				c3.15918,0,5.92969,0.64062,8.30957,1.91992c2.37988,1.28125,4.16992,3.12012,5.37012,5.52051l-5.75977,3.35938
				c-0.9209-1.47949-2.07031-2.58887-3.4502-3.33008c-1.37988-0.73926-2.89062-1.10938-4.53027-1.10938
				c-2.7998,0-5.12012,0.91016-6.95996,2.72949c-1.83984,1.82129-2.75977,4.25098-2.75977,7.29004
				c0,3.04102,0.90918,5.4707,2.73047,7.29004c1.81934,1.82129,4.14941,2.73047,6.98926,2.73047
				c1.63965,0,3.15039-0.36914,4.53027-1.11035c1.37988-0.73926,2.5293-1.84961,3.4502-3.33008l5.75977,3.36035
				c-1.24023,2.39941-3.05078,4.25-5.42969,5.5498c-2.38086,1.30078-5.12988,1.9502-8.25,1.9502
				C200.06862,160.76486,197.08913,160.06564,194.4485,158.66428z"/>
			<path class="st5" d="M228.70827,158.66428c-2.60059-1.39941-4.62988-3.34961-6.08984-5.84961
				c-1.45996-2.49902-2.18945-5.33008-2.18945-8.49023c0-3.15918,0.72949-5.97949,2.18945-8.45996
				c1.45996-2.47949,3.48926-4.41895,6.08984-5.81934s5.52051-2.10059,8.76074-2.10059c3.2793,0,6.21875,0.7002,8.81934,2.10059
				c2.59961,1.40039,4.62988,3.33984,6.09082,5.81934c1.45898,2.48047,2.18945,5.30078,2.18945,8.45996
				c0,3.16016-0.73047,5.99121-2.18945,8.49023c-1.46094,2.5-3.49121,4.4502-6.09082,5.84961
				c-2.60059,1.40137-5.54004,2.10059-8.81934,2.10059C234.22878,160.76486,231.30885,160.06564,228.70827,158.66428z
				 M244.30885,151.58517c1.7998-1.83984,2.7002-4.26074,2.7002-7.26074s-0.90039-5.41895-2.7002-7.25977
				c-1.7998-1.83887-4.08008-2.75977-6.83984-2.75977c-2.76074,0-5.03125,0.9209-6.81055,2.75977
				c-1.78027,1.84082-2.66992,4.25977-2.66992,7.25977s0.88965,5.4209,2.66992,7.26074
				c1.7793,1.83984,4.0498,2.75977,6.81055,2.75977C240.22878,154.34494,242.50905,153.42502,244.30885,151.58517z"/>
			<path class="st5" d="M267.52759,158.66428c-2.63965-1.39941-4.7002-3.34961-6.17969-5.84961
				c-1.48047-2.49902-2.21973-5.33008-2.21973-8.49023c0-3.15918,0.73926-5.97949,2.21973-8.45996
				c1.47949-2.47949,3.5293-4.41895,6.15039-5.81934c2.61914-1.40039,5.60938-2.10059,8.96973-2.10059
				c3.15918,0,5.92969,0.64062,8.30957,1.91992c2.37988,1.28125,4.16992,3.12012,5.37012,5.52051l-5.75977,3.35938
				c-0.9209-1.47949-2.07031-2.58887-3.4502-3.33008c-1.37988-0.73926-2.89062-1.10938-4.53027-1.10938
				c-2.7998,0-5.12012,0.91016-6.95996,2.72949c-1.83984,1.82129-2.75977,4.25098-2.75977,7.29004
				c0,3.04102,0.90918,5.4707,2.73047,7.29004c1.81934,1.82129,4.14941,2.73047,6.98926,2.73047
				c1.63965,0,3.15039-0.36914,4.53027-1.11035c1.37988-0.73926,2.5293-1.84961,3.4502-3.33008l5.75977,3.36035
				c-1.24023,2.39941-3.05078,4.25-5.42969,5.5498c-2.38086,1.30078-5.12988,1.9502-8.25,1.9502
				C273.14771,160.76486,270.16821,160.06564,267.52759,158.66428z"/>
			<path class="st5" d="M324.22778,131.48459c2.43945,2.36035,3.66016,5.86035,3.66016,10.5v18.36035h-7.5v-17.40039
				c0-2.79883-0.66016-4.90918-1.98047-6.33008c-1.32031-1.41895-3.2002-2.12988-5.63965-2.12988
				c-2.76074,0-4.94141,0.83105-6.54004,2.49023c-1.60059,1.66016-2.40039,4.0498-2.40039,7.16992v16.2002h-7.5v-44.52051h7.5
				v16.2002c1.23926-1.32031,2.76953-2.33008,4.58984-3.03027c1.82031-0.69922,3.84961-1.0498,6.08984-1.0498
				C318.54712,127.94455,321.78735,129.12521,324.22778,131.48459z"/>
			<path class="st5" d="M367.72681,146.72482h-25.13965c0.43945,2.36035,1.58984,4.22949,3.4502,5.61035
				c1.85938,1.37988,4.16992,2.06934,6.92969,2.06934c3.51953,0,6.41992-1.15918,8.7002-3.47949l4.01953,4.62012
				c-1.43945,1.71973-3.26074,3.02051-5.45996,3.89941c-2.2002,0.88086-4.67969,1.32031-7.43945,1.32031
				c-3.52051,0-6.62109-0.69922-9.30078-2.10059c-2.67969-1.39941-4.75-3.34961-6.20996-5.84961
				c-1.45996-2.49902-2.18945-5.33008-2.18945-8.49023c0-3.12012,0.70898-5.92969,2.12988-8.42969
				c1.41895-2.49902,3.38965-4.44922,5.91016-5.84961c2.51953-1.40039,5.35938-2.10059,8.51953-2.10059
				c3.12012,0,5.91016,0.69043,8.37012,2.07031s4.37988,3.32031,5.75977,5.82031s2.07031,5.39062,2.07031,8.66992
				C367.84692,145.02463,367.80688,145.76486,367.72681,146.72482z M345.55688,136.07443
				c-1.66016,1.4209-2.66992,3.31055-3.03027,5.66992h18.18066c-0.32129-2.31934-1.30078-4.19922-2.94043-5.63965
				c-1.64062-1.44043-3.68066-2.16016-6.12012-2.16016C349.24731,133.94455,347.21606,134.65549,345.55688,136.07443z"/>
			<path class="st5" d="M394.30591,158.60471c-0.87988,0.71973-1.94922,1.25977-3.20996,1.62012
				c-1.25977,0.36035-2.58984,0.54004-3.98926,0.54004c-3.52051,0-6.24023-0.91992-8.16016-2.75977
				s-2.87988-4.52051-2.87988-8.04004v-15.41992h-5.28027v-6h5.28027v-7.32031h7.5v7.32031h8.5791v6h-8.5791v15.23926
				c0,1.56055,0.37891,2.75098,1.13965,3.57031c0.75977,0.82031,1.86035,1.23047,3.2998,1.23047
				c1.67969,0,3.08008-0.44043,4.2002-1.32031L394.30591,158.60471z"/>
		</g>
		<g id="Gradient">
			
				<linearGradient id="Burn_00000063630165171221067020000011306926600789636998_" gradientUnits="userSpaceOnUse" x1="94.7218" y1="79.19113" x2="211.43089" y2="79.19113">
				<stop  offset="0" style="stop-color:#6194C3"/>
				<stop  offset="1" style="stop-color:#B5CBE2"/>
			</linearGradient>
			
				<path id="Burn_00000168838512689466312920000012608097738276139146_" style="fill:url(#Burn_00000063630165171221067020000011306926600789636998_);" d="
				M183.21922,50.64454l-55.46014-0.11803l13.7612,10.84148L94.7218,78.86446l47.31839,17.90363l-13.7117,11.08766l54.89073-0.78789
				c15.58087,0,28.21167-12.63079,28.21167-28.21165C211.43089,61.98365,195.89359,50.52652,183.21922,50.64454z
				 M183.21922,100.86309c-12.15407,0-22.00688-9.85282-22.00688-22.00689s9.85281-22.00689,22.00688-22.00689
				c12.15408,0,22.0069,9.85282,22.0069,22.00689S195.37331,100.86309,183.21922,100.86309z"/>
			<g>
				<path class="st1" d="M178.62033,92.75388h-5.08244V77.13422c0,0,5.08325,0.33235,5.08325,3.348L178.62033,92.75388z"/>
				<path class="st1" d="M173.8237,61.91059h12.41212c3.52438,0,9.86436,1.19957,9.86436,9.59571
					c0,8.56763-8.22466,8.91059-8.22466,8.91059l7.76982,12.33699h-5.13634l-6.74419-10.62379v-4.99588
					c0,0,7.36806,1.05503,7.36806-5.79777c0-5.14449-5.1445-5.14449-5.1445-5.14449l-9.5957-0.34216
					C176.39268,65.8498,173.8237,65.16632,173.8237,61.91059z"/>
			</g>
		</g>
	</g>
</g>
</svg>
