<?xml version="1.0" encoding="utf-8"?>
<!-- Generator: Adobe Illustrator 26.0.2, SVG Export Plug-In . SVG Version: 6.00 Build 0)  -->
<svg version="1.1" xmlns="http://www.w3.org/2000/svg" xmlns:xlink="http://www.w3.org/1999/xlink" x="0px" y="0px"
	 viewBox="0 0 680.31494 226.77165" style="enable-background:new 0 0 680.31494 226.77165;" xml:space="preserve">
<style type="text/css">
	.st0{fill:#1D1D1B;}
	.st1{fill:#C5C2C6;}
	.st2{fill:url(#Burn_00000172428392951141833910000001521958615183972779_);}
	.st3{fill:url(#SVGID_1_);}
	.st4{fill:url(#SVGID_00000027568562396830443940000017773060632675591088_);}
	.st5{fill:#969696;}
	.st6{fill:#6194C3;}
	.st7{fill:#FFFFFF;}
	.st8{fill:url(#SVGID_00000080168468865288451170000013207315532426387898_);}
	.st9{fill:url(#SVGID_00000021112193669439412010000001124554082500086441_);}
	.st10{fill:url(#SVGID_00000102538826082783289200000016067757866041227157_);}
	.st11{fill:url(#SVGID_00000128454889259994574850000000474438815474234028_);}
	.st12{fill:url(#SVGID_00000178194229647731766880000011978340467759364752_);}
	.st13{fill:url(#SVGID_00000013165609751713666570000009608034988641731979_);}
	.st14{fill:url(#SVGID_00000081645131974933626830000017462162799799004332_);}
	.st15{fill:url(#Burn_00000163043925796344388760000016953023770866261668_);}
</style>
<g id="rexLaunchpad">
</g>
<g id="rexMarket">
	<g id="rexMarket-Color">
		<g>
			<path class="st5" d="M146.03053,111.50915v7.14062c-0.64062-0.12012-1.2207-0.18066-1.74023-0.18066
				c-2.91992,0-5.2002,0.85059-6.83984,2.5498c-1.64062,1.70117-2.45996,4.15039-2.45996,7.35059v15.54004h-7.50001V111.8695
				h7.13966v4.67969C136.7903,113.18884,140.5901,111.50915,146.03053,111.50915z"/>
			<path class="st5" d="M182.09108,130.28943h-25.13965c0.43945,2.36035,1.58984,4.22949,3.4502,5.61035
				c1.85938,1.37988,4.16992,2.06934,6.92969,2.06934c3.51953,0,6.41992-1.15918,8.7002-3.47949l4.01953,4.62012
				c-1.43945,1.71973-3.26074,3.02051-5.45996,3.89941c-2.2002,0.88086-4.67969,1.32031-7.43945,1.32031
				c-3.52051,0-6.62109-0.69922-9.30078-2.10059c-2.67969-1.39941-4.75-3.34961-6.20996-5.84961
				c-1.45996-2.49902-2.18945-5.33008-2.18945-8.49024c0-3.12012,0.70898-5.92969,2.12988-8.42969
				c1.41895-2.49902,3.38965-4.44922,5.91016-5.84961c2.51953-1.40039,5.35938-2.10059,8.51953-2.10059
				c3.12012,0,5.91016,0.69043,8.37012,2.07031s4.37988,3.32031,5.75977,5.82031s2.07031,5.39062,2.07031,8.66993
				C182.2112,128.58923,182.17116,129.32947,182.09108,130.28943z M159.92116,119.63903
				c-1.66016,1.4209-2.66992,3.31055-3.03027,5.66992h18.18066c-0.32129-2.31934-1.30078-4.19922-2.94043-5.63965
				c-1.64062-1.44043-3.68066-2.16016-6.12012-2.16016C163.61159,117.50915,161.58034,118.22009,159.92116,119.63903z"/>
			<path class="st5" d="M208.91042,143.90955l-8.2207-11.10059l-8.2793,11.10059h-8.28027l12.47949-16.25977l-11.93945-15.78027
				h8.33984l7.86035,10.5l7.85938-10.5h8.10059l-12,15.66016l12.54004,16.37989H208.91042z"/>
			<path class="st6" d="M265.01001,143.90955l-0.05957-35.94044l-17.58006,30.36036h-1.5l-17.58008-30.24024v35.82032h-3v-42.00001
				h2.58008l18.7793,32.45997l18.78026-32.45997h2.52051l0.05957,42.00001H265.01001z"/>
			<path class="st6" d="M301.1897,115.31969c2.0791,1.97949,3.12012,4.88965,3.12012,8.72949v19.86036h-2.88086v-5.58008
				c-1,1.83984-2.45996,3.26953-4.37988,4.29004c-1.91992,1.01953-4.2207,1.53027-6.89941,1.53027
				c-3.48047,0-6.23047-0.82031-8.25-2.46094c-2.02051-1.63965-3.03027-3.79883-3.03027-6.47949
				c0-2.59961,0.92969-4.70996,2.79004-6.33008c1.86035-1.62012,4.83008-2.4297,8.91016-2.4297h10.74023v-2.52051
				c0-2.91895-0.79102-5.13867-2.37012-6.66016c-1.58105-1.51953-3.89062-2.2793-6.93066-2.2793
				c-2.08008,0-4.07031,0.35938-5.96973,1.08008c-1.90039,0.71973-3.50977,1.67969-4.83008,2.87988l-1.5-2.16016
				c1.56055-1.39941,3.43945-2.49023,5.63965-3.27051c2.2002-0.7793,4.5-1.16992,6.90039-1.16992
				C296.12915,112.34899,299.10864,113.33923,301.1897,115.31969z M297.19946,139.88904
				c1.81934-1.2002,3.18945-2.93945,4.11035-5.21973v-5.87988h-10.68066c-3.08008,0-5.30957,0.56055-6.68945,1.67969
				c-1.37988,1.12012-2.07031,2.66113-2.07031,4.62012c0,2.04004,0.75977,3.65039,2.28027,4.83008
				c1.51953,1.18066,3.66016,1.76953,6.41992,1.76953C293.16919,141.68884,295.37915,141.08923,297.19946,139.88904z"/>
			<path class="st6" d="M324.04907,114.17907c2.04004-1.21973,4.51953-1.83008,7.43945-1.83008v2.94043l-0.71973-0.06055
				c-3.47949,0-6.2002,1.09082-8.16016,3.27051c-1.95996,2.18066-2.93945,5.21094-2.93945,9.08984v16.32032h-3v-31.32032h2.87988
				v6.83984C320.50903,117.14977,322.00903,115.39977,324.04907,114.17907z"/>
			<path class="st6" d="M350.92896,127.1693l-8.15918,7.44044v9.2998h-3V99.38903h3v31.50001l20.04004-18.29981h3.83984
				l-13.5,12.66016l14.81934,18.66016h-3.71973L350.92896,127.1693z"/>
			<path class="st6" d="M400.25024,128.96912h-26.94043c0.08008,2.44043,0.69922,4.61035,1.86035,6.50977
				c1.15918,1.90039,2.72949,3.37109,4.70996,4.41016c1.97949,1.04102,4.20898,1.56055,6.68945,1.56055
				c2.04004,0,3.93066-0.37012,5.66992-1.11035c1.74023-0.73926,3.18945-1.83008,4.35059-3.26953l1.74023,1.97949
				c-1.36035,1.64062-3.07031,2.90039-5.13086,3.78027s-4.28906,1.32031-6.68945,1.32031
				c-3.12012,0-5.90039-0.67969-8.33984-2.04004c-2.44043-1.35938-4.35059-3.24023-5.73047-5.64062
				c-1.37988-2.39941-2.06934-5.13965-2.06934-8.21973c0-3.03907,0.64941-5.76954,1.94922-8.19044
				c1.2998-2.41895,3.09082-4.30957,5.37012-5.66992c2.28027-1.35938,4.83984-2.04004,7.68066-2.04004
				c2.83887,0,5.38965,0.6709,7.64941,2.01074s4.04004,3.20996,5.33984,5.60938c1.2998,2.40039,1.9502,5.12109,1.9502,8.16016
				L400.25024,128.96912z M379.42993,116.45934c-1.76074,0.98047-3.1709,2.36035-4.23047,4.13965
				c-1.05957,1.78027-1.66992,3.79102-1.8291,6.03027h24c-0.12012-2.23926-0.7207-4.23926-1.80078-6
				c-1.08008-1.75977-2.5-3.13965-4.25977-4.13965c-1.76074-1-3.74023-1.5-5.93945-1.5
				C383.16919,114.98962,381.1897,115.47985,379.42993,116.45934z"/>
			<path class="st6" d="M425.14966,141.92908c-0.76074,0.7207-1.70996,1.27051-2.85059,1.65039
				c-1.13965,0.37988-2.33008,0.57031-3.56934,0.57031c-2.7207,0-4.82129-0.75-6.30078-2.25
				c-1.48047-1.5-2.21973-3.58984-2.21973-6.27051V115.1693h-5.75977v-2.58008h5.75977v-6.83984h3v6.83984h9.95996v2.58008h-9.95996
				v20.16016c0,2.04004,0.48926,3.59082,1.46973,4.64941c0.98047,1.06055,2.43066,1.59082,4.35059,1.59082
				c1.95898,0,3.5791-0.58008,4.85938-1.74023L425.14966,141.92908z"/>
		</g>
		<g id="rexMarket-Symbol">
			<g id="R_00000151511212194341694470000004673511380639382953_">
				<path id="R-minor_00000119813482997057865990000002773431405553818757_" class="st1" d="M204.75,93.63h-3.06812v-9.42911
					c0,0,3.0686,0.20063,3.0686,2.02109L204.75,93.63z"/>
				<path id="R-major_00000003075621075639454660000016599121578019099307_" class="st1" d="M201.85442,75.01086h7.49281
					c2.12756,0,5.95482,0.72414,5.95482,5.79263c0,5.172-4.96498,5.37904-4.96498,5.37904l4.6904,7.44746h-3.10063l-4.07127-6.41325
					v-3.01585c0,0,4.44788,0.63689,4.44788-3.49993c0-3.10557-3.10558-3.10557-3.10558-3.10557l-5.79263-0.20655
					C203.40523,77.38884,201.85442,76.97624,201.85442,75.01086z"/>
			</g>
			<g>
				<linearGradient id="SVGID_1_" gradientUnits="userSpaceOnUse" x1="126.94088" y1="96.87968" x2="148.08563" y2="96.87968">
					<stop  offset="0" style="stop-color:#6194C3"/>
					<stop  offset="1" style="stop-color:#B5CBE2"/>
				</linearGradient>
				<path class="st3" d="M138.50529,95.30657h-8.41505c-1.74162,0-3.14936,1.41093-3.14936,3.14936
					c0,1.73848,1.40774,3.14935,3.14936,3.14935h8.41505c3.70361,0,7.05139-1.62505,9.58034-4.21696
					c-1.45502-1.57153-2.72737-3.33203-3.75089-5.23424C142.89235,94.07518,140.82318,95.30657,138.50529,95.30657z"/>
				
					<linearGradient id="SVGID_00000004526836239556311780000008597669905899360667_" gradientUnits="userSpaceOnUse" x1="126.94088" y1="84.28382" x2="179.69476" y2="84.28382">
					<stop  offset="0" style="stop-color:#6194C3"/>
					<stop  offset="1" style="stop-color:#B5CBE2"/>
				</linearGradient>
				<path style="fill:url(#SVGID_00000004526836239556311780000008597669905899360667_);" d="M163.17737,95.30657
					c-4.38707,0-9.7567-4.57917-11.492-9.79765l-1.48653-4.44059c-2.67696-8.04346-9.05754-14.10598-14.8429-14.10598h-5.2657
					c-1.74162,0-3.14936,1.41087-3.14936,3.14935c0,1.73843,1.40774,3.14936,3.14936,3.14936h5.2657
					c2.33995,0,6.84665,3.72882,8.86543,9.79452l1.48647,4.44373c2.63287,7.9112,10.30788,14.10598,17.46953,14.10598h8.76595
					l7.75145-6.29871H163.17737z"/>
				
					<linearGradient id="SVGID_00000100378102961162260450000001071989450951764633_" gradientUnits="userSpaceOnUse" x1="149.69493" y1="73.43113" x2="179.47942" y2="73.43113">
					<stop  offset="0" style="stop-color:#6194C3"/>
					<stop  offset="1" style="stop-color:#B5CBE2"/>
				</linearGradient>
				<path style="fill:url(#SVGID_00000100378102961162260450000001071989450951764633_);" d="M161.60271,73.26106h17.87671
					l-7.93082-6.29871h-9.94589c-4.84375,0-9.11743,2.39662-11.90778,6.05621c1.45819,2.16048,2.62662,4.51933,3.43283,6.88136
					C154.26466,76.06716,157.60931,73.26106,161.60271,73.26106z"/>
				
					<linearGradient id="SVGID_00000124151180965359652300000015817615037541404307_" gradientUnits="userSpaceOnUse" x1="154.23952" y1="84.30135" x2="224.69318" y2="84.30135">
					<stop  offset="0" style="stop-color:#6194C3"/>
					<stop  offset="1" style="stop-color:#B5CBE2"/>
				</linearGradient>
				<path style="fill:url(#SVGID_00000124151180965359652300000015817615037541404307_);" d="M207.66263,67.06866l-33.47957-0.07125
					l8.30725,6.54468l-28.25079,10.56206l28.56467,10.80791l-8.27733,6.69323l33.13577-0.47558
					c9.40573,0,17.03055-7.62486,17.03055-17.03055C224.69318,73.91373,215.31375,66.99741,207.66263,67.06866z M207.66263,97.38407
					c-7.33699,0-13.28487-5.94787-13.28487-13.28491c0-7.33699,5.94788-13.28486,13.28487-13.28486
					c7.33704,0,13.28491,5.94787,13.28491,13.28486C220.94754,91.4362,214.99966,97.38407,207.66263,97.38407z"/>
			</g>
		</g>
	</g>
</g>
<g id="rexBank">
</g>
<g id="rexLP">
</g>
<g id="Ricochet">
</g>
</svg>
