<?xml version="1.0" encoding="utf-8"?>
<!-- Generator: Adobe Illustrator 26.0.2, SVG Export Plug-In . SVG Version: 6.00 Build 0)  -->
<svg version="1.1" xmlns="http://www.w3.org/2000/svg" xmlns:xlink="http://www.w3.org/1999/xlink" x="0px" y="0px"
	 viewBox="0 0 680.31494 226.77165" style="enable-background:new 0 0 680.31494 226.77165;" xml:space="preserve">
<style type="text/css">
	.st0{fill:#1D1D1B;}
	.st1{fill:#C5C2C6;}
	.st2{fill:url(#Burn_00000163768572308534062010000002311224068977756833_);}
	.st3{fill:url(#SVGID_1_);}
	.st4{fill:url(#SVGID_00000016758303597664628940000013882902872943205550_);}
	.st5{fill:#969696;}
	.st6{fill:#6194C3;}
	.st7{fill:#FFFFFF;}
	.st8{fill:url(#SVGID_00000099650816562541633030000016358864607104366487_);}
	.st9{fill:url(#SVGID_00000115487313996452572210000008901908909410953362_);}
	.st10{fill:url(#SVGID_00000003095201993726733280000003027285678064289422_);}
	.st11{fill:url(#SVGID_00000170256441882088886590000000002815042101346464_);}
	.st12{fill:url(#SVGID_00000010299383250856078050000005613284048356438166_);}
	.st13{fill:url(#SVGID_00000016077337205587681520000017016769544717911996_);}
	.st14{fill:url(#SVGID_00000069386106784829487310000007269219873241276065_);}
	.st15{fill:url(#Burn_00000006693826616603428010000005299127686946173369_);}
</style>
<g id="rexLaunchpad">
</g>
<g id="rexMarket">
</g>
<g id="rexBank">
	<g id="rexBank-Black">
		<g id="rexBank-Symbol_00000137102572731885666920000015755966641965180827_">
			<g>
				<path class="st0" d="M169.24875,68.04528h-1.57205v-4.83135c0,0,1.57231,0.1028,1.57231,1.03558L169.24875,68.04528z"/>
				<path class="st0" d="M167.76509,58.50508h3.83922c1.09013,0,3.05116,0.37104,3.05116,2.96807
					c0,2.65007-2.54398,2.75615-2.54398,2.75615l2.40329,3.81598h-1.58873L170.84,64.75922v-1.54528
					c0,0,2.27904,0.32633,2.27904-1.79332c0-1.59126-1.59126-1.59126-1.59126-1.59126l-2.96806-0.10583
					C168.55971,59.72353,167.76509,59.51212,167.76509,58.50508z"/>
			</g>
			<path class="st0" d="M131.11919,108.30555h79.36292c0,0,0.04297,6.10972,0,6.15269c-2.32727,2.32728-77.28122,2.08171-79.36292,0
				C131.07927,114.41833,131.11919,108.30555,131.11919,108.30555z M137.27187,78.79164h6.15268v26.43757h-6.15268V78.79164z
				 M157.11259,78.79164h6.15268v26.43757h-6.15268V78.79164z M178.336,78.79164h6.15268v26.43757H178.336V78.79164z
				 M198.17673,78.79164h6.15269v26.43757h-6.15269V78.79164z M131.11919,63.40993c0,0,27.46864-10.74068,39.68146-10.74068
				c12.98137,0,39.68146,10.74068,39.68146,10.74068V75.7153h-79.36292V63.40993z M170.80064,71.39453
				c4.40977,0,7.98459-3.57483,7.98459-7.9846s-3.57481-7.9846-7.98459-7.9846s-7.9846,3.57483-7.9846,7.9846
				S166.39087,71.39453,170.80064,71.39453z"/>
		</g>
		<g>
			<path class="st0" d="M144.52536,125.8024v7.13965c-0.64062-0.12012-1.2207-0.17969-1.74023-0.17969
				c-2.91992,0-5.2002,0.84961-6.83984,2.5498c-1.64062,1.7002-2.45996,4.15039-2.45996,7.34961v15.54004h-7.5v-32.04004h7.13965
				v4.68066C135.28513,127.48209,139.08493,125.8024,144.52536,125.8024z"/>
			<path class="st0" d="M180.58591,144.5817h-25.13965c0.43945,2.36133,1.58984,4.23047,3.4502,5.61035
				c1.85938,1.37988,4.16992,2.07031,6.92969,2.07031c3.51953,0,6.41992-1.16016,8.7002-3.48047l4.01953,4.62012
				c-1.43945,1.7207-3.26074,3.02051-5.45996,3.90039c-2.2002,0.87988-4.67969,1.31934-7.43945,1.31934
				c-3.52051,0-6.62109-0.69922-9.30078-2.09961c-2.67969-1.39941-4.75-3.34961-6.20996-5.84961s-2.18945-5.33008-2.18945-8.49023
				c0-3.12012,0.70898-5.92969,2.12988-8.43066c1.41895-2.49902,3.38965-4.44922,5.91016-5.84961
				c2.51953-1.39941,5.35938-2.09961,8.51953-2.09961c3.12012,0,5.91016,0.68945,8.37012,2.06934s4.37988,3.32129,5.75977,5.82031
				c1.37988,2.5,2.07031,5.39062,2.07031,8.66992C180.70602,142.88248,180.66599,143.62173,180.58591,144.5817z
				 M158.41599,133.93228c-1.66016,1.41992-2.66992,3.31055-3.03027,5.66992h18.18066
				c-0.32129-2.31934-1.30078-4.2002-2.94043-5.64062c-1.64062-1.43945-3.68066-2.15918-6.12012-2.15918
				C162.10641,131.8024,160.07516,132.51236,158.41599,133.93228z"/>
			<path class="st0" d="M207.40524,158.20181l-8.2207-11.09961l-8.2793,11.09961h-8.28027l12.47949-16.25977l-11.93945-15.78027
				h8.33984l7.86035,10.5l7.85938-10.5h8.10059l-12,15.66016l12.54004,16.37988H207.40524z"/>
			<path class="st0" d="M255.6152,140.0817c1.5791,1.80078,2.36914,4.14062,2.36914,7.02051
				c0,3.56055-1.2998,6.2998-3.89941,8.21973c-2.60059,1.91992-6.45996,2.87988-11.58008,2.87988h-18.71973v-42h17.51953
				c4.56055,0,8.10938,0.93066,10.65039,2.79004c2.53906,1.86035,3.80957,4.51074,3.80957,7.9502
				c0,2.40039-0.62988,4.41992-1.88965,6.05957c-1.25977,1.64062-2.96973,2.82031-5.12988,3.54004
				C251.74509,137.1022,254.03415,138.28189,255.6152,140.0817z M226.8447,118.84244v16.73926h14.33984
				c3.67969,0,6.51074-0.70898,8.49023-2.12988c1.98047-1.41895,2.96973-3.50977,2.96973-6.26953
				c0-2.71973-0.98926-4.79004-2.96973-6.20996c-1.97949-1.41992-4.81055-2.12988-8.49023-2.12988H226.8447z M251.77438,153.43228
				c2.10059-1.41992,3.15039-3.60938,3.15039-6.57031c0-2.95996-1.0498-5.13965-3.15039-6.54004
				c-2.09961-1.39941-5.18945-2.09961-9.26953-2.09961H226.8447v17.33984h15.66016
				C246.58493,155.56216,249.67477,154.8522,251.77438,153.43228z"/>
			<path class="st0" d="M287.44528,129.61197c2.0791,1.98047,3.12012,4.88965,3.12012,8.73047v19.85938h-2.88086v-5.58008
				c-1,1.84082-2.45996,3.27051-4.37988,4.29004c-1.91992,1.02051-4.2207,1.53027-6.89941,1.53027
				c-3.48047,0-6.23047-0.81934-8.25-2.45996c-2.02051-1.63965-3.03027-3.7998-3.03027-6.48047
				c0-2.59961,0.92969-4.70996,2.79004-6.3291c1.86035-1.62012,4.83008-2.43066,8.91016-2.43066h10.74023v-2.51953
				c0-2.91992-0.79102-5.13965-2.37012-6.66016c-1.58105-1.51953-3.89062-2.28027-6.93066-2.28027
				c-2.08008,0-4.07031,0.36035-5.96973,1.08008c-1.90039,0.71973-3.50977,1.67969-4.83008,2.87988l-1.5-2.16016
				c1.56055-1.39941,3.43945-2.48926,5.63965-3.26953s4.5-1.16992,6.90039-1.16992
				C282.38474,126.64224,285.36423,127.63248,287.44528,129.61197z M283.45505,154.18228
				c1.81934-1.2002,3.18945-2.94043,4.11035-5.2207v-5.87988h-10.68066c-3.08008,0-5.30957,0.56055-6.68945,1.68066
				s-2.07031,2.66016-2.07031,4.62012c0,2.04004,0.75977,3.65039,2.28027,4.8291c1.51953,1.18066,3.66016,1.77051,6.41992,1.77051
				C279.42477,155.98209,281.63474,155.38248,283.45505,154.18228z"/>
			<path class="st0" d="M327.52438,130.06216c2.28027,2.28027,3.41992,5.56055,3.41992,9.83984v18.2998h-3v-18.05957
				c0-3.51953-0.89062-6.2002-2.66992-8.04004c-1.78027-1.83984-4.27051-2.75977-7.46973-2.75977
				c-3.68066,0-6.58008,1.10059-8.7002,3.2998c-2.12109,2.2002-3.17969,5.16016-3.17969,8.87988v16.67969h-3v-31.31934h2.87988
				v6.7793c1.08008-2.19922,2.68945-3.91895,4.83008-5.16016c2.13867-1.23926,4.66895-1.85938,7.58984-1.85938
				C322.1445,126.64224,325.24411,127.78189,327.52438,130.06216z"/>
			<path class="st0" d="M354.46286,141.46158l-8.15918,7.44043v9.2998h-3v-44.51953h3v31.5l20.04004-18.2998h3.83984l-13.5,12.65918
				l14.81934,18.66016h-3.71973L354.46286,141.46158z"/>
		</g>
	</g>
</g>
<g id="rexLP">
</g>
<g id="Ricochet">
</g>
</svg>
