<?xml version="1.0" encoding="utf-8"?>
<!-- Generator: Adobe Illustrator 26.0.2, SVG Export Plug-In . SVG Version: 6.00 Build 0)  -->
<svg version="1.1" xmlns="http://www.w3.org/2000/svg" xmlns:xlink="http://www.w3.org/1999/xlink" x="0px" y="0px"
	 viewBox="0 0 680.31494 226.77165" style="enable-background:new 0 0 680.31494 226.77165;" xml:space="preserve">
<style type="text/css">
	.st0{fill:#1D1D1B;}
	.st1{fill:#C5C2C6;}
	.st2{fill:url(#Burn_00000159466204182366776630000017622816105082806700_);}
	.st3{fill:url(#SVGID_1_);}
	.st4{fill:url(#SVGID_00000103943142074357028380000014421523917539522453_);}
	.st5{fill:#969696;}
	.st6{fill:#6194C3;}
	.st7{fill:#FFFFFF;}
	.st8{fill:url(#SVGID_00000083058903730991620530000005832351661947937166_);}
	.st9{fill:url(#SVGID_00000178919010646702493370000011223921900141304449_);}
	.st10{fill:url(#SVGID_00000104664104435975574460000016701670879252650171_);}
	.st11{fill:url(#SVGID_00000039821444445660753930000003950856334296021683_);}
	.st12{fill:url(#SVGID_00000036227879726213055250000009355932680302923684_);}
	.st13{fill:url(#SVGID_00000175297368173343366590000009861250010981765806_);}
	.st14{fill:url(#SVGID_00000160892727330956632710000006364760451848524447_);}
	.st15{fill:url(#Burn_00000150088428502237795030000011815107158685459619_);}
</style>
<g id="rexLaunchpad">
</g>
<g id="rexMarket">
</g>
<g id="rexBank">
</g>
<g id="rexLP">
</g>
<g id="Ricochet">
	<g id="Richochet-Black">
		<g>
			<path class="st0" d="M154.18552,160.46506l-8.58008-12.2998c-0.36035,0.04004-0.90039,0.05957-1.62012,0.05957h-9.47949v12.24023
				h-7.80078v-42h17.28027c3.63965,0,6.81055,0.60059,9.50977,1.7998c2.7002,1.2002,4.77051,2.9209,6.20996,5.16016
				c1.44043,2.24121,2.16016,4.90039,2.16016,7.98047c0,3.16016-0.77051,5.87988-2.30957,8.16016
				c-1.54102,2.2793-3.75,3.98047-6.62988,5.09961l9.65918,13.7998H154.18552z M151.3652,127.22482
				c-1.76074-1.43945-4.34082-2.15918-7.74023-2.15918h-9.11914v16.73926h9.11914c3.39941,0,5.97949-0.72852,7.74023-2.18945
				c1.75977-1.45996,2.64062-3.53027,2.64062-6.20996S153.12497,128.66525,151.3652,127.22482z"/>
			<path class="st0" d="M170.20505,121.85568c-0.9209-0.86035-1.37988-1.92969-1.37988-3.20996s0.45898-2.34961,1.37988-3.20996
				c0.91895-0.86035,2.05957-1.29004,3.41992-1.29004c1.35938,0,2.49902,0.41016,3.41992,1.22949
				c0.91992,0.82031,1.37988,1.85059,1.37988,3.08984c0,1.32031-0.4502,2.43066-1.34961,3.33008
				c-0.90039,0.90039-2.05078,1.35059-3.4502,1.35059C172.26462,123.14572,171.12399,122.71603,170.20505,121.85568z
				 M169.8447,128.42502h7.5v32.04004h-7.5V128.42502z"/>
			<path class="st0" d="M192.94333,158.78537c-2.63965-1.39941-4.7002-3.34961-6.17969-5.84961
				c-1.48047-2.5-2.21973-5.33008-2.21973-8.49023c0-3.15918,0.73926-5.97949,2.21973-8.45996
				c1.47949-2.47949,3.5293-4.41992,6.15039-5.82031c2.61914-1.39941,5.60938-2.09961,8.96973-2.09961
				c3.15918,0,5.92969,0.63965,8.30957,1.91992s4.16992,3.12012,5.37012,5.51953l-5.75977,3.36035
				c-0.9209-1.47949-2.07031-2.58984-3.4502-3.33008s-2.89062-1.11035-4.53027-1.11035c-2.7998,0-5.12012,0.91016-6.95996,2.73047
				s-2.75977,4.25-2.75977,7.29004s0.90918,5.46973,2.73047,7.29004c1.81934,1.82031,4.14941,2.72949,6.98926,2.72949
				c1.63965,0,3.15039-0.36914,4.53027-1.10938s2.5293-1.84961,3.4502-3.33008l5.75977,3.35938
				c-1.24023,2.40039-3.05078,4.25098-5.42969,5.55078c-2.38086,1.2998-5.12988,1.94922-8.25,1.94922
				C198.56345,160.88498,195.58395,160.18576,192.94333,158.78537z"/>
			<path class="st0" d="M227.20309,158.78537c-2.60059-1.39941-4.62988-3.34961-6.08984-5.84961s-2.18945-5.33008-2.18945-8.49023
				c0-3.15918,0.72949-5.97949,2.18945-8.45996c1.45996-2.47949,3.48926-4.41992,6.08984-5.82031
				c2.60059-1.39941,5.52051-2.09961,8.76074-2.09961c3.2793,0,6.21875,0.7002,8.81934,2.09961
				c2.59961,1.40039,4.62988,3.34082,6.09082,5.82031c1.45898,2.48047,2.18945,5.30078,2.18945,8.45996
				c0,3.16016-0.73047,5.99023-2.18945,8.49023c-1.46094,2.5-3.49121,4.4502-6.09082,5.84961
				c-2.60059,1.40039-5.54004,2.09961-8.81934,2.09961C232.7236,160.88498,229.80368,160.18576,227.20309,158.78537z
				 M242.80368,151.70529c1.7998-1.83984,2.7002-4.25977,2.7002-7.25977s-0.90039-5.41992-2.7002-7.25977
				s-4.08008-2.76074-6.83984-2.76074c-2.76074,0-5.03125,0.9209-6.81055,2.76074c-1.78027,1.83984-2.66992,4.25977-2.66992,7.25977
				s0.88965,5.41992,2.66992,7.25977c1.7793,1.83984,4.0498,2.75977,6.81055,2.75977
				C238.7236,154.46506,241.00388,153.54514,242.80368,151.70529z"/>
			<path class="st0" d="M266.02243,158.78537c-2.63965-1.39941-4.7002-3.34961-6.17969-5.84961
				c-1.48047-2.5-2.21973-5.33008-2.21973-8.49023c0-3.15918,0.73926-5.97949,2.21973-8.45996
				c1.47949-2.47949,3.5293-4.41992,6.15039-5.82031c2.61914-1.39941,5.60938-2.09961,8.96973-2.09961
				c3.15918,0,5.92969,0.63965,8.30957,1.91992s4.16992,3.12012,5.37012,5.51953l-5.75977,3.36035
				c-0.9209-1.47949-2.07031-2.58984-3.4502-3.33008s-2.89062-1.11035-4.53027-1.11035c-2.7998,0-5.12012,0.91016-6.95996,2.73047
				s-2.75977,4.25-2.75977,7.29004s0.90918,5.46973,2.73047,7.29004c1.81934,1.82031,4.14941,2.72949,6.98926,2.72949
				c1.63965,0,3.15039-0.36914,4.53027-1.10938s2.5293-1.84961,3.4502-3.33008l5.75977,3.35938
				c-1.24023,2.40039-3.05078,4.25098-5.42969,5.55078c-2.38086,1.2998-5.12988,1.94922-8.25,1.94922
				C271.64255,160.88498,268.66306,160.18576,266.02243,158.78537z"/>
			<path class="st0" d="M322.72263,131.60568c2.43945,2.36035,3.66016,5.86035,3.66016,10.5v18.35938h-7.5v-17.39941
				c0-2.7998-0.66016-4.91016-1.98047-6.33008s-3.2002-2.12988-5.63965-2.12988c-2.76074,0-4.94141,0.83008-6.54004,2.48926
				c-1.60059,1.66113-2.40039,4.05078-2.40039,7.16992v16.2002h-7.5v-44.51953h7.5v16.2002
				c1.23926-1.32031,2.76953-2.33008,4.58984-3.03027c1.82031-0.69922,3.84961-1.0498,6.08984-1.0498
				C317.04196,128.06564,320.2822,129.24533,322.72263,131.60568z"/>
			<path class="st0" d="M366.22165,146.84494H341.082c0.43945,2.36133,1.58984,4.23047,3.4502,5.61035
				c1.85938,1.37988,4.16992,2.07031,6.92969,2.07031c3.51953,0,6.41992-1.16016,8.7002-3.48047l4.01953,4.62012
				c-1.43945,1.7207-3.26074,3.02051-5.45996,3.90039c-2.2002,0.87988-4.67969,1.31934-7.43945,1.31934
				c-3.52051,0-6.62109-0.69922-9.30078-2.09961c-2.67969-1.39941-4.75-3.34961-6.20996-5.84961s-2.18945-5.33008-2.18945-8.49023
				c0-3.12012,0.70898-5.92969,2.12988-8.43066c1.41895-2.49902,3.38965-4.44922,5.91016-5.84961
				c2.51953-1.39941,5.35938-2.09961,8.51953-2.09961c3.12012,0,5.91016,0.68945,8.37012,2.06934s4.37988,3.32129,5.75977,5.82031
				c1.37988,2.5,2.07031,5.39062,2.07031,8.66992C366.34177,145.14572,366.30173,145.88498,366.22165,146.84494z
				 M344.05173,136.19553c-1.66016,1.41992-2.66992,3.31055-3.03027,5.66992h18.18066
				c-0.32129-2.31934-1.30078-4.2002-2.94043-5.64062c-1.64062-1.43945-3.68066-2.15918-6.12012-2.15918
				C347.74216,134.06564,345.71091,134.7756,344.05173,136.19553z"/>
			<path class="st0" d="M392.80075,158.72482c-0.87988,0.7207-1.94922,1.26074-3.20996,1.62012
				c-1.25977,0.36035-2.58984,0.54004-3.98926,0.54004c-3.52051,0-6.24023-0.91895-8.16016-2.75977
				c-1.91992-1.83887-2.87988-4.51953-2.87988-8.04004v-15.41992h-5.28027v-6h5.28027v-7.32031h7.5v7.32031h8.5791v6h-8.5791
				v15.24023c0,1.55957,0.37891,2.75,1.13965,3.56934c0.75977,0.82031,1.86035,1.23047,3.2998,1.23047
				c1.67969,0,3.08008-0.43945,4.2002-1.32031L392.80075,158.72482z"/>
		</g>
		<g id="Gradient_00000079454531103351919480000000822319791753733292_">
			<path id="Burn_00000014600701544854966870000017257784756746605456_" class="st0" d="M182.66791,50.64454l-55.46016-0.11803
				l13.7612,10.84148L94.17048,78.86446l47.3184,17.90363l-13.7117,11.08766l54.89073-0.78789
				c15.58087,0,28.21165-12.63079,28.21165-28.21165C210.87956,61.98365,195.34225,50.52652,182.66791,50.64454z
				 M182.66791,100.86309c-12.15407,0-22.0069-9.85282-22.0069-22.00689s9.85283-22.00689,22.0069-22.00689
				s22.0069,9.85282,22.0069,22.00689S194.82198,100.86309,182.66791,100.86309z"/>
			<g>
				<path class="st0" d="M178.069,92.75388h-5.08243V77.13422c0,0,5.08325,0.33235,5.08325,3.348L178.069,92.75388z"/>
				<path class="st0" d="M173.27237,61.91059h12.41212c3.52438,0,9.86436,1.19957,9.86436,9.59571
					c0,8.56763-8.22466,8.91059-8.22466,8.91059l7.76982,12.33699h-5.13632l-6.7442-10.62379v-4.99588
					c0,0,7.36806,1.05503,7.36806-5.79777c0-5.14449-5.1445-5.14449-5.1445-5.14449l-9.5957-0.34216
					C175.84135,65.8498,173.27237,65.16632,173.27237,61.91059z"/>
			</g>
		</g>
	</g>
</g>
</svg>
