<?xml version="1.0" encoding="utf-8"?>
<!-- Generator: Adobe Illustrator 26.0.2, SVG Export Plug-In . SVG Version: 6.00 Build 0)  -->
<svg version="1.1" xmlns="http://www.w3.org/2000/svg" xmlns:xlink="http://www.w3.org/1999/xlink" x="0px" y="0px"
	 viewBox="0 0 680.31494 226.77165" style="enable-background:new 0 0 680.31494 226.77165;" xml:space="preserve">
<style type="text/css">
	.st0{fill:#1D1D1B;}
	.st1{fill:#C5C2C6;}
	.st2{fill:url(#Burn_00000085963240072499663920000003296106654104186794_);}
	.st3{fill:url(#SVGID_1_);}
	.st4{fill:url(#SVGID_00000083082998260937627600000013061692948802817439_);}
	.st5{fill:#969696;}
	.st6{fill:#6194C3;}
	.st7{fill:#FFFFFF;}
	.st8{fill:url(#SVGID_00000036245547371668393160000000206517076958962069_);}
	.st9{fill:url(#SVGID_00000049934712147865971560000006069162687688133554_);}
	.st10{fill:url(#SVGID_00000062897207972561737540000006771588728954969269_);}
	.st11{fill:url(#SVGID_00000158716660501969977610000016834425020129089686_);}
	.st12{fill:url(#SVGID_00000138568027911012243900000000470251787170816677_);}
	.st13{fill:url(#SVGID_00000002354066587230804710000011521258594815799188_);}
	.st14{fill:url(#SVGID_00000179641271797268416470000005637944930031294353_);}
	.st15{fill:url(#Burn_00000070827745106569763110000014356905270046051519_);}
</style>
<g id="rexLaunchpad">
</g>
<g id="rexMarket">
</g>
<g id="rexBank">
</g>
<g id="rexLP">
</g>
<g id="Ricochet">
	<rect id="BlackBG_00000032643280752448658630000006349228651685059725_" class="st0" width="680.31494" height="226.77165"/>
	<g id="Ricochet-White">
		<g>
			<path class="st7" d="M155.44011,160.46506l-8.58008-12.2998c-0.35938,0.04004-0.90039,0.05957-1.61914,0.05957h-9.48047v12.24023
				h-7.80077v-42h17.28124c3.63867,0,6.81055,0.60059,9.50977,1.7998c2.69922,1.2002,4.76953,2.9209,6.20898,5.16016
				c1.44141,2.24121,2.16016,4.90039,2.16016,7.98047c0,3.16016-0.76953,5.87988-2.30859,8.16016
				c-1.54102,2.2793-3.75,3.98047-6.63086,5.09961l9.66016,13.7998H155.44011z M152.6198,127.22482
				c-1.75977-1.43945-4.33984-2.15918-7.74023-2.15918h-9.11914v16.73926h9.11914c3.40039,0,5.98047-0.72852,7.74023-2.18945
				c1.75977-1.45996,2.64062-3.53027,2.64062-6.20996S154.37956,128.66525,152.6198,127.22482z"/>
			<path class="st7" d="M171.45964,121.85568c-0.91992-0.86035-1.37891-1.92969-1.37891-3.20996s0.45898-2.34961,1.37891-3.20996
				s2.06055-1.29004,3.41992-1.29004s2.5,0.41016,3.41992,1.22949c0.91992,0.82031,1.38086,1.85059,1.38086,3.08984
				c0,1.32031-0.45117,2.43066-1.34961,3.33008c-0.90039,0.90039-2.05078,1.35059-3.45117,1.35059
				C173.52019,123.14572,172.37956,122.71603,171.45964,121.85568z M171.10027,128.42502h7.5v32.04004h-7.5V128.42502z"/>
			<path class="st7" d="M194.19792,158.78537c-2.63867-1.39941-4.69922-3.34961-6.17969-5.84961s-2.21875-5.33008-2.21875-8.49023
				c0-3.15918,0.73828-5.97949,2.21875-8.45996c1.48047-2.47949,3.5293-4.41992,6.15039-5.82031
				c2.61914-1.39941,5.60938-2.09961,8.9707-2.09961c3.1582,0,5.92969,0.63965,8.30859,1.91992
				c2.38086,1.28027,4.16992,3.12012,5.37109,5.51953l-5.75977,3.36035c-0.92188-1.47949-2.07031-2.58984-3.45117-3.33008
				c-1.37891-0.74023-2.89062-1.11035-4.5293-1.11035c-2.80078,0-5.12109,0.91016-6.96094,2.73047s-2.75977,4.25-2.75977,7.29004
				s0.91016,5.46973,2.73047,7.29004s4.15039,2.72949,6.99023,2.72949c1.63867,0,3.15039-0.36914,4.5293-1.10938
				c1.38086-0.74023,2.5293-1.84961,3.45117-3.33008l5.75977,3.35938c-1.24023,2.40039-3.05078,4.25098-5.42969,5.55078
				c-2.38086,1.2998-5.13086,1.94922-8.25,1.94922C199.81902,160.88498,196.83855,160.18576,194.19792,158.78537z"/>
			<path class="st7" d="M228.45769,158.78537c-2.59961-1.39941-4.62891-3.34961-6.08984-5.84961
				c-1.45898-2.5-2.18945-5.33008-2.18945-8.49023c0-3.15918,0.73047-5.97949,2.18945-8.45996
				c1.46094-2.47949,3.49023-4.41992,6.08984-5.82031c2.60156-1.39941,5.52148-2.09961,8.76172-2.09961
				c3.2793,0,6.21875,0.7002,8.81836,2.09961c2.59961,1.40039,4.63086,3.34082,6.0918,5.82031
				c1.45898,2.48047,2.18945,5.30078,2.18945,8.45996c0,3.16016-0.73047,5.99023-2.18945,8.49023
				c-1.46094,2.5-3.49219,4.4502-6.0918,5.84961c-2.59961,1.40039-5.53906,2.09961-8.81836,2.09961
				C233.97917,160.88498,231.05925,160.18576,228.45769,158.78537z M244.05925,151.70529
				c1.79883-1.83984,2.69922-4.25977,2.69922-7.25977s-0.90039-5.41992-2.69922-7.25977
				c-1.80078-1.83984-4.08008-2.76074-6.83984-2.76074c-2.76172,0-5.03125,0.9209-6.81055,2.76074
				c-1.78125,1.83984-2.66992,4.25977-2.66992,7.25977s0.88867,5.41992,2.66992,7.25977
				c1.7793,1.83984,4.04883,2.75977,6.81055,2.75977C239.97917,154.46506,242.25847,153.54514,244.05925,151.70529z"/>
			<path class="st7" d="M267.27802,158.78537c-2.64062-1.39941-4.70117-3.34961-6.17969-5.84961
				c-1.48047-2.5-2.2207-5.33008-2.2207-8.49023c0-3.15918,0.74023-5.97949,2.2207-8.45996
				c1.47852-2.47949,3.5293-4.41992,6.15039-5.82031c2.61914-1.39941,5.60938-2.09961,8.96875-2.09961
				c3.16016,0,5.92969,0.63965,8.31055,1.91992c2.37891,1.28027,4.16992,3.12012,5.36914,5.51953l-5.75977,3.36035
				c-0.91992-1.47949-2.07031-2.58984-3.44922-3.33008c-1.38086-0.74023-2.89062-1.11035-4.53125-1.11035
				c-2.79883,0-5.11914,0.91016-6.95898,2.73047s-2.75977,4.25-2.75977,7.29004s0.9082,5.46973,2.73047,7.29004
				c1.81836,1.82031,4.14844,2.72949,6.98828,2.72949c1.64062,0,3.15039-0.36914,4.53125-1.10938
				c1.37891-0.74023,2.5293-1.84961,3.44922-3.33008l5.75977,3.35938c-1.24023,2.40039-3.05078,4.25098-5.42969,5.55078
				c-2.38086,1.2998-5.12891,1.94922-8.25,1.94922C272.89716,160.88498,269.91864,160.18576,267.27802,158.78537z"/>
			<path class="st7" d="M323.97723,131.60568c2.43945,2.36035,3.66016,5.86035,3.66016,10.5v18.35938h-7.5v-17.39941
				c0-2.7998-0.66016-4.91016-1.98047-6.33008s-3.19922-2.12988-5.63867-2.12988c-2.76172,0-4.94141,0.83008-6.54102,2.48926
				c-1.59961,1.66113-2.40039,4.05078-2.40039,7.16992v16.2002h-7.5v-44.51953h7.5v16.2002
				c1.24023-1.32031,2.76953-2.33008,4.58984-3.03027c1.82031-0.69922,3.84961-1.0498,6.08984-1.0498
				C318.29755,128.06564,321.53778,129.24533,323.97723,131.60568z"/>
			<path class="st7" d="M367.47723,146.84494h-25.14062c0.43945,2.36133,1.58984,4.23047,3.45117,5.61035
				c1.85938,1.37988,4.16992,2.07031,6.92969,2.07031c3.51953,0,6.41992-1.16016,8.69922-3.48047l4.01953,4.62012
				c-1.43945,1.7207-3.25977,3.02051-5.45898,3.90039c-2.20117,0.87988-4.67969,1.31934-7.43945,1.31934
				c-3.52148,0-6.62109-0.69922-9.30078-2.09961c-2.67969-1.39941-4.75-3.34961-6.21094-5.84961
				c-1.45898-2.5-2.18945-5.33008-2.18945-8.49023c0-3.12012,0.70898-5.92969,2.13086-8.43066
				c1.41797-2.49902,3.38867-4.44922,5.91016-5.84961c2.51953-1.39941,5.35938-2.09961,8.51953-2.09961
				c3.11914,0,5.91016,0.68945,8.36914,2.06934c2.46094,1.37988,4.38086,3.32129,5.75977,5.82031
				c1.38086,2.5,2.07031,5.39062,2.07031,8.66992C367.59637,145.14572,367.55731,145.88498,367.47723,146.84494z
				 M345.30731,136.19553c-1.66016,1.41992-2.66992,3.31055-3.03125,5.66992h18.18164
				c-0.32227-2.31934-1.30078-4.2002-2.94141-5.64062c-1.64062-1.43945-3.67969-2.15918-6.11914-2.15918
				C348.99677,134.06564,346.96552,134.7756,345.30731,136.19553z"/>
			<path class="st7" d="M394.05536,158.72482c-0.87891,0.7207-1.94922,1.26074-3.20898,1.62012
				c-1.25977,0.36035-2.58984,0.54004-3.99023,0.54004c-3.51953,0-6.24023-0.91895-8.16016-2.75977
				c-1.91992-1.83887-2.87891-4.51953-2.87891-8.04004v-15.41992h-5.28125v-6h5.28125v-7.32031h7.5v7.32031h8.57812v6h-8.57812
				v15.24023c0,1.55957,0.37891,2.75,1.13867,3.56934c0.75977,0.82031,1.86133,1.23047,3.30078,1.23047
				c1.67969,0,3.08008-0.43945,4.19922-1.32031L394.05536,158.72482z"/>
		</g>
		<g id="Gradient_00000011735323391352303910000007550589900944599471_">
			<path id="Burn_00000036227532016633056210000002582145919493075593_" class="st7" d="M183.43768,50.64454l-55.46016-0.11803
				l13.7612,10.84148L94.94025,78.86446l47.3184,17.90363l-13.7117,11.08766l54.89073-0.78789
				c15.58087,0,28.21165-12.63079,28.21165-28.21165C211.64934,61.98365,196.11203,50.52652,183.43768,50.64454z
				 M183.43768,100.86309c-12.15407,0-22.0069-9.85282-22.0069-22.00689s9.85283-22.00689,22.0069-22.00689
				s22.0069,9.85282,22.0069,22.00689S195.59175,100.86309,183.43768,100.86309z"/>
			<g>
				<path class="st7" d="M178.83878,92.75388h-5.08243V77.13422c0,0,5.08325,0.33235,5.08325,3.348L178.83878,92.75388z"/>
				<path class="st7" d="M174.04214,61.91059h12.41212c3.52438,0,9.86436,1.19957,9.86436,9.59571
					c0,8.56763-8.22466,8.91059-8.22466,8.91059l7.76982,12.33699h-5.13632l-6.7442-10.62379v-4.99588
					c0,0,7.36806,1.05503,7.36806-5.79777c0-5.14449-5.1445-5.14449-5.1445-5.14449l-9.5957-0.34216
					C176.61113,65.8498,174.04214,65.16632,174.04214,61.91059z"/>
			</g>
		</g>
	</g>
</g>
</svg>
