<?xml version="1.0" encoding="utf-8"?>
<!-- Generator: Adobe Illustrator 26.0.2, SVG Export Plug-In . SVG Version: 6.00 Build 0)  -->
<svg version="1.1" xmlns="http://www.w3.org/2000/svg" xmlns:xlink="http://www.w3.org/1999/xlink" x="0px" y="0px"
	 viewBox="0 0 680.31494 226.77165" style="enable-background:new 0 0 680.31494 226.77165;" xml:space="preserve">
<style type="text/css">
	.st0{fill:#1D1D1B;}
	.st1{fill:#C5C2C6;}
	.st2{fill:url(#Burn_00000116218769485075867600000008501884955535499425_);}
	.st3{fill:url(#SVGID_1_);}
	.st4{fill:url(#SVGID_00000040566478172079204360000004564250782302799020_);}
	.st5{fill:#969696;}
	.st6{fill:#6194C3;}
	.st7{font-family:'Montserrat-SemiBold';}
	.st8{font-size:60px;}
	.st9{font-family:'Montserrat-Light';}
	.st10{fill:#FFFFFF;}
	.st11{fill:url(#SVGID_00000119808732827417670970000001236421039114047115_);}
	.st12{fill:url(#SVGID_00000003793743496923372940000001081214492950865032_);}
	.st13{fill:url(#SVGID_00000048489708690399973370000018192409238833045664_);}
	.st14{fill:url(#SVGID_00000060014906201230072420000006369803546271045814_);}
	.st15{fill:url(#SVGID_00000020379356105957270600000004539637487101408699_);}
	.st16{fill:url(#SVGID_00000144331806605511060960000016690499671457755807_);}
	.st17{fill:url(#SVGID_00000110464587482208877920000006083293371458981275_);}
	.st18{fill:url(#Burn_00000177486685804648102070000002764519003296665222_);}
</style>
<g id="rexLaunchpad">
	<g id="rexLaunchpad-Black">
		<g id="redLaunchpad-Symbol_00000008125411910089964280000009733145607152374189_">
			<g id="R_00000129884934082127366400000012386312317156153260_">
				<path id="R-minor_00000002354421018032621620000000568657615909452977_" class="st0" d="M170.3287,94.47499h-3.08905v-9.49351
					c0,0,3.08955,0.202,3.08955,2.03489L170.3287,94.47499z"/>
				<path id="R-major_00000159470388612731034460000018118060771926919860_" class="st0" d="M167.41336,75.72869h7.54398
					c2.14211,0,5.99548,0.72909,5.99548,5.83219c0,5.20734-4.99887,5.41579-4.99887,5.41579l4.72243,7.49832h-3.12181
					l-4.09908-6.45705v-3.03645c0,0,4.47826,0.64124,4.47826-3.52383c0-3.12679-3.12679-3.12679-3.12679-3.12679l-5.8322-0.20795
					C168.97476,78.12291,167.41336,77.7075,167.41336,75.72869z"/>
			</g>
			<g id="Bullet_00000044164583754490090780000013260605407473447346_">
				<g id="Black_00000105420941169560760510000015962049640869144972_">
					<path id="Burn_00000013891157834772453080000009965673442898827175_" class="st0" d="M165.87093,69.82426l-30.26871,14.83423
						l10.41504,2.21405l-20.81446,22.11085l30.60766-2.95031l-4.49712,9.72847l29.7149-15.17516
						c8.49472-4.18558,11.98798-14.465,7.8024-22.95972C184.29808,68.42771,172.7493,66.35513,165.87093,69.82426z
						 M179.36142,97.20353c-6.62643,3.26502-14.64502,0.54006-17.91005-6.08636c-3.26501-6.62643-0.54005-14.64503,6.08638-17.91005
						c6.62642-3.26501,14.64502-0.54005,17.91005,6.08637C188.71281,85.91991,185.98785,93.93851,179.36142,97.20353z"/>
				</g>
				<g>
					<path class="st0" d="M211.30396,66.42283c2.16484,4.53293,0.506,10.00024,0.53973,9.94366
						c8.28223-11.75188,7.25266-17.42553-9.37759-16.79198C202.94121,59.71194,209.2735,62.17132,211.30396,66.42283z"/>
					<path class="st0" d="M196.1972,60.01196c-9.27657,0.85965-17.69823,3.81424-23.56305,6.40338
						c6.88107-0.55279,14.88638,2.54007,18.57347,10.02311c3.27667,6.65008,2.17155,14.31502-2.19601,19.72883
						c6.01622-3.401,13.43265-8.50915,19.50737-15.50202c1.6264-5.11191,1.66539-9.30054,0.10425-12.52529
						C206.57253,63.9031,201.79655,61.48788,196.1972,60.01196z"/>
				</g>
			</g>
		</g>
		<text transform="matrix(1 0 0 1 121.06529 151.34447)"><tspan x="0" y="0" class="st0 st7 st8">rex</tspan><tspan x="96.89941" y="0" class="st0 st9 st8">Launchpad</tspan></text>
	</g>
</g>
<g id="rexMarket">
</g>
<g id="rexBank">
</g>
<g id="rexLP">
</g>
<g id="Ricochet">
</g>
</svg>
