<?xml version="1.0" encoding="utf-8"?>
<!-- Generator: Adobe Illustrator 26.0.2, SVG Export Plug-In . SVG Version: 6.00 Build 0)  -->
<svg version="1.1" xmlns="http://www.w3.org/2000/svg" xmlns:xlink="http://www.w3.org/1999/xlink" x="0px" y="0px"
	 viewBox="0 0 680.31494 226.77165" style="enable-background:new 0 0 680.31494 226.77165;" xml:space="preserve">
<style type="text/css">
	.st0{fill:#1D1D1B;}
	.st1{fill:#C5C2C6;}
	.st2{fill:url(#Burn_00000133515161659139590340000004712327445413939129_);}
	.st3{fill:url(#SVGID_1_);}
	.st4{fill:url(#SVGID_00000165206767807760321160000010080158499917627530_);}
	.st5{fill:#969696;}
	.st6{fill:#6194C3;}
	.st7{fill:#FFFFFF;}
	.st8{fill:url(#SVGID_00000106855650373432139310000010824941217384066208_);}
	.st9{fill:url(#SVGID_00000081624857059834758160000007788258649816481963_);}
	.st10{fill:url(#SVGID_00000031909766633150377850000014550515887864676509_);}
	.st11{fill:url(#SVGID_00000134943956343942543360000005163314042058154933_);}
	.st12{fill:url(#SVGID_00000083077081922559223930000003084131953679383211_);}
	.st13{fill:url(#SVGID_00000115498272335725111420000016090316138721512832_);}
	.st14{fill:url(#SVGID_00000082370821682279688390000000923990968887898251_);}
	.st15{fill:url(#Burn_00000119840375291277380940000005623151949807103156_);}
</style>
<g id="rexLaunchpad">
</g>
<g id="rexMarket">
</g>
<g id="rexBank">
	<g id="rexBank-Color">
		<g id="rexBank-Symbol">
			<g>
				<path class="st1" d="M170.7542,68.04528h-1.57205v-4.83135c0,0,1.57231,0.1028,1.57231,1.03558L170.7542,68.04528z"/>
				<path class="st1" d="M169.27055,58.50508h3.8392c1.09013,0,3.05118,0.37104,3.05118,2.96807
					c0,2.65007-2.54399,2.75615-2.54399,2.75615l2.40331,3.81598h-1.58873l-2.08606-3.28606v-1.54528
					c0,0,2.27902,0.32633,2.27902-1.79332c0-1.59126-1.59125-1.59126-1.59125-1.59126l-2.96806-0.10583
					C170.06517,59.72353,169.27055,59.51212,169.27055,58.50508z"/>
			</g>
			<linearGradient id="SVGID_1_" gradientUnits="userSpaceOnUse" x1="132.6069" y1="84.39107" x2="212.00665" y2="84.39107">
				<stop  offset="0" style="stop-color:#6194C3"/>
				<stop  offset="1" style="stop-color:#B5CBE2"/>
			</linearGradient>
			<path class="st3" d="M132.62463,108.30555h79.36292c0,0,0.04297,6.10972,0,6.15269c-2.32727,2.32728-77.2812,2.08171-79.36292,0
				C132.58473,114.41833,132.62463,108.30555,132.62463,108.30555z M138.77731,78.79164h6.15269v26.43757h-6.15269V78.79164z
				 M158.61804,78.79164h6.15269v26.43757h-6.15269V78.79164z M179.84146,78.79164h6.15268v26.43757h-6.15268V78.79164z
				 M199.68219,78.79164h6.15268v26.43757h-6.15268V78.79164z M132.62463,63.40993c0,0,27.46866-10.74068,39.68146-10.74068
				c12.98138,0,39.68146,10.74068,39.68146,10.74068V75.7153h-79.36292V63.40993z M172.30609,71.39453
				c4.40977,0,7.9846-3.57483,7.9846-7.9846s-3.57483-7.9846-7.9846-7.9846s-7.98459,3.57483-7.98459,7.9846
				S167.89632,71.39453,172.30609,71.39453z"/>
		</g>
		<g>
			<path class="st5" d="M146.03053,125.8024v7.13965c-0.64062-0.12012-1.2207-0.17969-1.74023-0.17969
				c-2.91992,0-5.2002,0.84961-6.83984,2.5498c-1.64062,1.7002-2.45996,4.15039-2.45996,7.34961v15.54004h-7.50001v-32.04004
				h7.13966v4.68066C136.7903,127.48209,140.5901,125.8024,146.03053,125.8024z"/>
			<path class="st5" d="M182.09108,144.5817h-25.13965c0.43945,2.36133,1.58984,4.23047,3.4502,5.61035
				c1.85938,1.37988,4.16992,2.07031,6.92969,2.07031c3.51953,0,6.41992-1.16016,8.7002-3.48047l4.01953,4.62012
				c-1.43945,1.7207-3.26074,3.02051-5.45996,3.90039c-2.2002,0.87988-4.67969,1.31934-7.43945,1.31934
				c-3.52051,0-6.62109-0.69922-9.30078-2.09961c-2.67969-1.39941-4.75-3.34961-6.20996-5.84961s-2.18945-5.33008-2.18945-8.49023
				c0-3.12012,0.70898-5.92969,2.12988-8.43066c1.41895-2.49902,3.38965-4.44922,5.91016-5.84961
				c2.51953-1.39941,5.35938-2.09961,8.51953-2.09961c3.12012,0,5.91016,0.68945,8.37012,2.06934s4.37988,3.32129,5.75977,5.82031
				c1.37988,2.5,2.07031,5.39062,2.07031,8.66992C182.2112,142.88248,182.17116,143.62173,182.09108,144.5817z M159.92116,133.93228
				c-1.66016,1.41992-2.66992,3.31055-3.03027,5.66992h18.18066c-0.32129-2.31934-1.30078-4.2002-2.94043-5.64062
				c-1.64062-1.43945-3.68066-2.15918-6.12012-2.15918C163.61159,131.8024,161.58034,132.51236,159.92116,133.93228z"/>
			<path class="st5" d="M208.91042,158.20181l-8.2207-11.09961l-8.2793,11.09961h-8.28027l12.47949-16.25977l-11.93945-15.78027
				h8.33984l7.86035,10.5l7.85938-10.5h8.10059l-12,15.66016l12.54004,16.37988H208.91042z"/>
			<path class="st6" d="M257.12036,140.0817c1.5791,1.80078,2.36914,4.14062,2.36914,7.02051
				c0,3.56055-1.2998,6.2998-3.8994,8.21973c-2.60059,1.91992-6.45996,2.87988-11.58008,2.87988H225.2903v-42h17.51953
				c4.56055,0,8.10938,0.93066,10.65039,2.79004c2.53906,1.86035,3.80956,4.51074,3.80956,7.9502
				c0,2.40039-0.62988,4.41992-1.88963,6.05957c-1.25977,1.64062-2.96973,2.82031-5.12988,3.54004
				C253.25026,137.1022,255.53932,138.28189,257.12036,140.0817z M228.34987,118.84244v16.73926h14.33984
				c3.67969,0,6.51074-0.70898,8.49023-2.12988c1.98047-1.41895,2.96973-3.50977,2.96973-6.26953
				c0-2.71973-0.98926-4.79004-2.96973-6.20996c-1.97949-1.41992-4.81055-2.12988-8.49023-2.12988H228.34987z M253.27956,153.43228
				c2.10059-1.41992,3.15038-3.60938,3.15038-6.57031c0-2.95996-1.04979-5.13965-3.15038-6.54004
				c-2.09961-1.39941-5.18945-2.09961-9.26953-2.09961h-15.66016v17.33984h15.66016
				C248.0901,155.56216,251.17995,154.8522,253.27956,153.43228z"/>
			<path class="st6" d="M288.95044,129.61197c2.0791,1.98047,3.12012,4.88965,3.12012,8.73047v19.85938h-2.88086v-5.58008
				c-1,1.84082-2.45996,3.27051-4.37988,4.29004c-1.91992,1.02051-4.2207,1.53027-6.89941,1.53027
				c-3.48047,0-6.23047-0.81934-8.25-2.45996c-2.02051-1.63965-3.03027-3.7998-3.03027-6.48047
				c0-2.59961,0.92969-4.70996,2.79004-6.3291c1.86035-1.62012,4.83008-2.43066,8.91016-2.43066h10.74023v-2.51953
				c0-2.91992-0.79102-5.13965-2.37012-6.66016c-1.58105-1.51953-3.89062-2.28027-6.93066-2.28027
				c-2.08008,0-4.07031,0.36035-5.96973,1.08008c-1.90039,0.71973-3.50977,1.67969-4.83008,2.87988l-1.5-2.16016
				c1.56055-1.39941,3.43945-2.48926,5.63965-3.26953s4.5-1.16992,6.90039-1.16992
				C283.88989,126.64224,286.86938,127.63248,288.95044,129.61197z M284.96021,154.18228
				c1.81934-1.2002,3.18945-2.94043,4.11035-5.2207v-5.87988h-10.68066c-3.08008,0-5.30957,0.56055-6.68945,1.68066
				s-2.07031,2.66016-2.07031,4.62012c0,2.04004,0.75977,3.65039,2.28027,4.8291c1.51953,1.18066,3.66016,1.77051,6.41992,1.77051
				C280.92993,155.98209,283.13989,155.38248,284.96021,154.18228z"/>
			<path class="st6" d="M329.02954,130.06216c2.28027,2.28027,3.41992,5.56055,3.41992,9.83984v18.2998h-3v-18.05957
				c0-3.51953-0.89062-6.2002-2.66992-8.04004c-1.78027-1.83984-4.27051-2.75977-7.46973-2.75977
				c-3.68066,0-6.58008,1.10059-8.7002,3.2998c-2.12109,2.2002-3.17969,5.16016-3.17969,8.87988v16.67969h-3v-31.31934h2.87988
				v6.7793c1.08008-2.19922,2.68945-3.91895,4.83008-5.16016c2.13867-1.23926,4.66895-1.85938,7.58984-1.85938
				C323.64966,126.64224,326.74927,127.78189,329.02954,130.06216z"/>
			<path class="st6" d="M355.96802,141.46158l-8.15918,7.44043v9.2998h-3v-44.51953h3v31.5l20.04004-18.2998h3.83984l-13.5,12.65918
				l14.81934,18.66016h-3.71973L355.96802,141.46158z"/>
		</g>
	</g>
</g>
<g id="rexLP">
</g>
<g id="Ricochet">
</g>
</svg>
