<?xml version="1.0" encoding="utf-8"?>
<!-- Generator: Adobe Illustrator 26.0.2, SVG Export Plug-In . SVG Version: 6.00 Build 0)  -->
<svg version="1.1" xmlns="http://www.w3.org/2000/svg" xmlns:xlink="http://www.w3.org/1999/xlink" x="0px" y="0px"
	 viewBox="0 0 680.31494 226.77165" style="enable-background:new 0 0 680.31494 226.77165;" xml:space="preserve">
<style type="text/css">
	.st0{fill:#1D1D1B;}
	.st1{fill:#C5C2C6;}
	.st2{fill:url(#Burn_00000107574205311015157180000016467865049771627659_);}
	.st3{fill:url(#SVGID_1_);}
	.st4{fill:url(#SVGID_00000066473276993465412370000016356131775993889452_);}
	.st5{fill:#969696;}
	.st6{fill:#6194C3;}
	.st7{fill:#FFFFFF;}
	.st8{fill:url(#SVGID_00000176735090770834605210000002207798696440526980_);}
	.st9{fill:url(#SVGID_00000173841658752593847780000012508414999899238320_);}
	.st10{fill:url(#SVGID_00000181086819435688597010000005663424385265046972_);}
	.st11{fill:url(#SVGID_00000140697778347519734700000011950280534312013717_);}
	.st12{fill:url(#SVGID_00000068658390724504544630000006043195794717321607_);}
	.st13{fill:url(#SVGID_00000080897185108795830900000005357834986581601443_);}
	.st14{fill:url(#SVGID_00000093158216824091728290000014789682226510095549_);}
	.st15{fill:url(#Burn_00000067201528498462924290000007087008661341441964_);}
</style>
<g id="rexLaunchpad">
</g>
<g id="rexMarket">
	<g id="rexMarket-Black">
		<g>
			<path class="st0" d="M144.52536,111.50915v7.14062c-0.64062-0.12012-1.2207-0.18066-1.74023-0.18066
				c-2.91992,0-5.2002,0.85059-6.83984,2.5498c-1.64062,1.70117-2.45996,4.15039-2.45996,7.35059v15.54004h-7.5V111.8695h7.13965
				v4.67969C135.28513,113.18884,139.08493,111.50915,144.52536,111.50915z"/>
			<path class="st0" d="M180.58591,130.28943h-25.13965c0.43945,2.36035,1.58984,4.22949,3.4502,5.61035
				c1.85938,1.37988,4.16992,2.06934,6.92969,2.06934c3.51953,0,6.41992-1.15918,8.7002-3.47949l4.01953,4.62012
				c-1.43945,1.71973-3.26074,3.02051-5.45996,3.89941c-2.2002,0.88086-4.67969,1.32031-7.43945,1.32031
				c-3.52051,0-6.62109-0.69922-9.30078-2.10059c-2.67969-1.39941-4.75-3.34961-6.20996-5.84961
				c-1.45996-2.49902-2.18945-5.33008-2.18945-8.49024c0-3.12012,0.70898-5.92969,2.12988-8.42969
				c1.41895-2.49902,3.38965-4.44922,5.91016-5.84961c2.51953-1.40039,5.35938-2.10059,8.51953-2.10059
				c3.12012,0,5.91016,0.69043,8.37012,2.07031s4.37988,3.32031,5.75977,5.82031s2.07031,5.39062,2.07031,8.66993
				C180.70602,128.58923,180.66599,129.32947,180.58591,130.28943z M158.41599,119.63903
				c-1.66016,1.4209-2.66992,3.31055-3.03027,5.66992h18.18066c-0.32129-2.31934-1.30078-4.19922-2.94043-5.63965
				c-1.64062-1.44043-3.68066-2.16016-6.12012-2.16016C162.10641,117.50915,160.07516,118.22009,158.41599,119.63903z"/>
			<path class="st0" d="M207.40524,143.90955l-8.2207-11.10059l-8.2793,11.10059h-8.28027l12.47949-16.25977l-11.93945-15.78027
				h8.33984l7.86035,10.5l7.85938-10.5h8.10059l-12,15.66016l12.54004,16.37989H207.40524z"/>
			<path class="st0" d="M263.50485,143.90955l-0.05957-35.94044l-17.58008,30.36036h-1.5l-17.58008-30.24024v35.82032h-3v-42.00001
				h2.58008l18.7793,32.45997l18.78027-32.45997h2.52051l0.05957,42.00001H263.50485z"/>
			<path class="st0" d="M299.68454,115.31969c2.0791,1.97949,3.12012,4.88965,3.12012,8.72949v19.86036h-2.88086v-5.58008
				c-1,1.83984-2.45996,3.26953-4.37988,4.29004c-1.91992,1.01953-4.2207,1.53027-6.89941,1.53027
				c-3.48047,0-6.23047-0.82031-8.25-2.46094c-2.02051-1.63965-3.03027-3.79883-3.03027-6.47949
				c0-2.59961,0.92969-4.70996,2.79004-6.33008c1.86035-1.62012,4.83008-2.4297,8.91016-2.4297h10.74023v-2.52051
				c0-2.91895-0.79102-5.13867-2.37012-6.66016c-1.58105-1.51953-3.89062-2.2793-6.93066-2.2793
				c-2.08008,0-4.07031,0.35938-5.96973,1.08008c-1.90039,0.71973-3.50977,1.67969-4.83008,2.87988l-1.5-2.16016
				c1.56055-1.39941,3.43945-2.49023,5.63965-3.27051c2.2002-0.7793,4.5-1.16992,6.90039-1.16992
				C294.62399,112.34899,297.60349,113.33923,299.68454,115.31969z M295.69431,139.88904
				c1.81934-1.2002,3.18945-2.93945,4.11035-5.21973v-5.87988h-10.68066c-3.08008,0-5.30957,0.56055-6.68945,1.67969
				c-1.37988,1.12012-2.07031,2.66113-2.07031,4.62012c0,2.04004,0.75977,3.65039,2.28027,4.83008
				c1.51953,1.18066,3.66016,1.76953,6.41992,1.76953C291.66403,141.68884,293.87399,141.08923,295.69431,139.88904z"/>
			<path class="st0" d="M322.54391,114.17907c2.04004-1.21973,4.51953-1.83008,7.43945-1.83008v2.94043l-0.71973-0.06055
				c-3.47949,0-6.2002,1.09082-8.16016,3.27051c-1.95996,2.18066-2.93945,5.21094-2.93945,9.08984v16.32032h-3v-31.32032h2.87988
				v6.83984C319.00388,117.14977,320.50388,115.39977,322.54391,114.17907z"/>
			<path class="st0" d="M349.4238,127.1693l-8.15918,7.44044v9.2998h-3V99.38903h3v31.50001l20.04004-18.29981h3.83984
				l-13.5,12.66016l14.81934,18.66016h-3.71973L349.4238,127.1693z"/>
			<path class="st0" d="M398.74509,128.96912h-26.94043c0.08008,2.44043,0.69922,4.61035,1.86035,6.50977
				c1.15918,1.90039,2.72949,3.37109,4.70996,4.41016c1.97949,1.04102,4.20898,1.56055,6.68945,1.56055
				c2.04004,0,3.93066-0.37012,5.66992-1.11035c1.74023-0.73926,3.18945-1.83008,4.35059-3.26953l1.74023,1.97949
				c-1.36035,1.64062-3.07031,2.90039-5.13086,3.78027s-4.28906,1.32031-6.68945,1.32031
				c-3.12012,0-5.90039-0.67969-8.33984-2.04004c-2.44043-1.35938-4.35059-3.24023-5.73047-5.64062
				c-1.37988-2.39941-2.06934-5.13965-2.06934-8.21973c0-3.03907,0.64941-5.76954,1.94922-8.19044
				c1.2998-2.41895,3.09082-4.30957,5.37012-5.66992c2.28027-1.35938,4.83984-2.04004,7.68066-2.04004
				c2.83887,0,5.38965,0.6709,7.64941,2.01074s4.04004,3.20996,5.33984,5.60938c1.2998,2.40039,1.9502,5.12109,1.9502,8.16016
				L398.74509,128.96912z M377.92477,116.45934c-1.76074,0.98047-3.1709,2.36035-4.23047,4.13965
				c-1.05957,1.78027-1.66992,3.79102-1.8291,6.03027h24c-0.12012-2.23926-0.7207-4.23926-1.80078-6
				c-1.08008-1.75977-2.5-3.13965-4.25977-4.13965c-1.76074-1-3.74023-1.5-5.93945-1.5
				C381.66403,114.98962,379.68454,115.47985,377.92477,116.45934z"/>
			<path class="st0" d="M423.6445,141.92908c-0.76074,0.7207-1.70996,1.27051-2.85059,1.65039
				c-1.13965,0.37988-2.33008,0.57031-3.56934,0.57031c-2.7207,0-4.82129-0.75-6.30078-2.25
				c-1.48047-1.5-2.21973-3.58984-2.21973-6.27051V115.1693h-5.75977v-2.58008h5.75977v-6.83984h3v6.83984h9.95996v2.58008h-9.95996
				v20.16016c0,2.04004,0.48926,3.59082,1.46973,4.64941c0.98047,1.06055,2.43066,1.59082,4.35059,1.59082
				c1.95898,0,3.5791-0.58008,4.85938-1.74023L423.6445,141.92908z"/>
		</g>
		<g id="rexMarket-Symbol_00000044873658489193931040000001967809080041164223_">
			<g id="R_00000101809534326909711180000007188539287556071312_">
				<path id="R-minor_00000161630377765854364730000015644213769713744516_" class="st0" d="M203.24454,93.63h-3.0681v-9.42911
					c0,0,3.06859,0.20063,3.06859,2.02109L203.24454,93.63z"/>
				<path id="R-major_00000057836433135749282140000003631401178025551763_" class="st0" d="M200.34897,75.01086h7.4928
					c2.12758,0,5.95482,0.72414,5.95482,5.79263c0,5.172-4.96497,5.37904-4.96497,5.37904l4.6904,7.44746h-3.10065l-4.07126-6.41325
					v-3.01585c0,0,4.44786,0.63689,4.44786-3.49993c0-3.10557-3.10556-3.10557-3.10556-3.10557l-5.79263-0.20655
					C201.89978,77.38884,200.34897,76.97624,200.34897,75.01086z"/>
			</g>
			<g>
				<path class="st0" d="M136.99983,95.30657h-8.41505c-1.74161,0-3.14935,1.41093-3.14935,3.14936
					c0,1.73848,1.40775,3.14935,3.14935,3.14935h8.41505c3.70363,0,7.05141-1.62505,9.58035-4.21696
					c-1.45502-1.57153-2.72737-3.33203-3.7509-5.23424C141.3869,94.07518,139.31773,95.30657,136.99983,95.30657z"/>
				<path class="st0" d="M161.67191,95.30657c-4.38705,0-9.75668-4.57917-11.49199-9.79765l-1.48653-4.44059
					c-2.67697-8.04346-9.05754-14.10598-14.84291-14.10598h-5.2657c-1.74161,0-3.14935,1.41087-3.14935,3.14935
					c0,1.73843,1.40775,3.14936,3.14935,3.14936h5.2657c2.33997,0,6.84666,3.72882,8.86543,9.79452l1.48648,4.44373
					c2.63287,7.9112,10.30788,14.10598,17.46951,14.10598h8.76596l7.75145-6.29871H161.67191z"/>
				<path class="st0" d="M160.09726,73.26106h17.87671l-7.93083-6.29871h-9.94588c-4.84377,0-9.11745,2.39662-11.90779,6.05621
					c1.45821,2.16048,2.62662,4.51933,3.43283,6.88136C152.7592,76.06716,156.10385,73.26106,160.09726,73.26106z"/>
				<path class="st0" d="M206.15717,67.06866l-33.47955-0.07125l8.30724,6.54468l-28.25079,10.56206l28.56467,10.80791
					l-8.27733,6.69323l33.13577-0.47558c9.40575,0,17.03055-7.62486,17.03055-17.03055
					C223.18771,73.91373,213.8083,66.99741,206.15717,67.06866z M206.15717,97.38407c-7.33699,0-13.28485-5.94787-13.28485-13.28491
					c0-7.33699,5.94786-13.28486,13.28485-13.28486c7.33705,0,13.28491,5.94787,13.28491,13.28486
					C219.44208,91.4362,213.49422,97.38407,206.15717,97.38407z"/>
			</g>
		</g>
	</g>
</g>
<g id="rexBank">
</g>
<g id="rexLP">
</g>
<g id="Ricochet">
</g>
</svg>
