<?xml version="1.0" encoding="utf-8"?>
<!-- Generator: Adobe Illustrator 26.0.2, SVG Export Plug-In . SVG Version: 6.00 Build 0)  -->
<svg version="1.1" xmlns="http://www.w3.org/2000/svg" xmlns:xlink="http://www.w3.org/1999/xlink" x="0px" y="0px"
	 viewBox="0 0 680.31494 226.77165" style="enable-background:new 0 0 680.31494 226.77165;" xml:space="preserve">
<style type="text/css">
	.st0{fill:#1D1D1B;}
	.st1{fill:#C5C2C6;}
	.st2{fill:url(#Burn_00000076583244604179197210000001952480863530114977_);}
	.st3{fill:url(#SVGID_1_);}
	.st4{fill:url(#SVGID_00000181799409279578073250000011027661100746679440_);}
	.st5{fill:#969696;}
	.st6{fill:#6194C3;}
	.st7{fill:#FFFFFF;}
	.st8{fill:url(#SVGID_00000173121118482678258610000015772202861696674180_);}
	.st9{fill:url(#SVGID_00000033367026081268811160000010263278212417214378_);}
	.st10{fill:url(#SVGID_00000058567863555785289710000007510441364396635792_);}
	.st11{fill:url(#SVGID_00000154423378483996809500000002416463636912985510_);}
	.st12{fill:url(#SVGID_00000125574678705256698910000016017997196535020424_);}
	.st13{fill:url(#SVGID_00000183941521313599337300000005644949388752535698_);}
	.st14{fill:url(#SVGID_00000121255092687240322570000002802147232281879186_);}
	.st15{fill:url(#Burn_00000030462404797930743990000007393905146548734115_);}
</style>
<g id="rexLaunchpad">
	<g id="rexLaunchpad-Color">
		<g id="redLaunchpad-Symbol">
			<g id="R">
				<path id="R-minor" class="st1" d="M171.83417,94.47499h-3.08907v-9.49351c0,0,3.08955,0.202,3.08955,2.03489L171.83417,94.47499
					z"/>
				<path id="R-major" class="st1" d="M168.91881,75.72869h7.54399c2.14209,0,5.99548,0.72909,5.99548,5.83219
					c0,5.20734-4.99889,5.41579-4.99889,5.41579l4.72244,7.49832h-3.12183l-4.09906-6.45705v-3.03645
					c0,0,4.47824,0.64124,4.47824-3.52383c0-3.12679-3.12679-3.12679-3.12679-3.12679l-5.83218-0.20795
					C170.48022,78.12291,168.91881,77.7075,168.91881,75.72869z"/>
			</g>
			<g id="Bullet">
				<g id="Black_00000018202076181946704760000001499379163846248845_">
					
						<linearGradient id="Burn_00000003088112789434821380000014922831166887774082_" gradientUnits="userSpaceOnUse" x1="139.19473" y1="104.28935" x2="194.37186" y2="104.28935" gradientTransform="matrix(0.94682 0.32176 -0.32176 0.94682 37.31443 -60.56834)">
						<stop  offset="0" style="stop-color:#6194C3"/>
						<stop  offset="1" style="stop-color:#B5CBE2"/>
					</linearGradient>
					
						<path id="Burn_00000059277696364916871650000009698199461605521832_" style="fill:url(#Burn_00000003088112789434821380000014922831166887774082_);" d="
						M167.37637,69.82426l-30.26871,14.83423l10.41505,2.21405l-20.81447,22.11085l30.60765-2.95031l-4.4971,9.72847
						l29.71489-15.17516c8.49474-4.18558,11.98798-14.465,7.80241-22.95972
						C185.80353,68.42771,174.25476,66.35513,167.37637,69.82426z M180.86687,97.20353
						c-6.62642,3.26502-14.64502,0.54006-17.91003-6.08636c-3.26501-6.62643-0.54005-14.64503,6.08636-17.91005
						c6.62643-3.26501,14.64503-0.54005,17.91005,6.08637S187.4933,93.93851,180.86687,97.20353z"/>
				</g>
				<g>
					
						<linearGradient id="SVGID_1_" gradientUnits="userSpaceOnUse" x1="196.45157" y1="65.34028" x2="212.40672" y2="65.34028" gradientTransform="matrix(0.94682 0.32176 -0.32176 0.94682 37.31443 -60.56834)">
						<stop  offset="0" style="stop-color:#6194C3"/>
						<stop  offset="1" style="stop-color:#B5CBE2"/>
					</linearGradient>
					<path class="st3" d="M212.8094,66.42283c2.16486,4.53293,0.50601,10.00024,0.53973,9.94366
						c8.28224-11.75188,7.25266-17.42553-9.37759-16.79198C204.44666,59.71194,210.77896,62.17132,212.8094,66.42283z"/>
					
						<linearGradient id="SVGID_00000125570143504184185730000006039527037373400762_" gradientUnits="userSpaceOnUse" x1="170.40714" y1="80.78438" x2="208.9687" y2="80.78438" gradientTransform="matrix(0.94682 0.32176 -0.32176 0.94682 37.31443 -60.56834)">
						<stop  offset="0" style="stop-color:#6194C3"/>
						<stop  offset="1" style="stop-color:#B5CBE2"/>
					</linearGradient>
					<path style="fill:url(#SVGID_00000125570143504184185730000006039527037373400762_);" d="M197.70265,60.01196
						c-9.27657,0.85965-17.69823,3.81424-23.56305,6.40338c6.88109-0.55279,14.88638,2.54007,18.57347,10.02311
						c3.27667,6.65008,2.17155,14.31502-2.19601,19.72883c6.01622-3.401,13.43265-8.50915,19.50737-15.50202
						c1.62642-5.11191,1.66539-9.30054,0.10425-12.52529C208.07797,63.9031,203.30202,61.48788,197.70265,60.01196z"/>
				</g>
			</g>
		</g>
		<g>
			<path class="st5" d="M146.03053,118.94442v7.14014c-0.64062-0.12012-1.2207-0.18018-1.74023-0.18018
				c-2.91992,0-5.2002,0.8501-6.83984,2.54981c-1.64062,1.70068-2.45996,4.15039-2.45996,7.3501v15.54004h-7.50001v-32.04005
				h7.13966v4.68018C136.7903,120.62411,140.5901,118.94442,146.03053,118.94442z"/>
			<path class="st5" d="M182.09108,137.72421h-25.13965c0.43945,2.36084,1.58984,4.22998,3.4502,5.61035
				c1.85938,1.37988,4.16992,2.06982,6.92969,2.06982c3.51953,0,6.41992-1.15967,8.7002-3.47998l4.01953,4.62012
				c-1.43945,1.72021-3.26074,3.02051-5.45996,3.8999c-2.2002,0.88037-4.67969,1.31982-7.43945,1.31982
				c-3.52051,0-6.62109-0.69922-9.30078-2.1001c-2.67969-1.39941-4.75-3.34961-6.20996-5.84961
				c-1.45996-2.49951-2.18945-5.33008-2.18945-8.49023c0-3.12012,0.70898-5.92969,2.12988-8.43018
				c1.41895-2.49902,3.38965-4.44922,5.91016-5.84961c2.51953-1.3999,5.35938-2.1001,8.51953-2.1001
				c3.12012,0,5.91016,0.68994,8.37012,2.06982s4.37988,3.3208,5.75977,5.82031c1.37988,2.50001,2.07031,5.39063,2.07031,8.66993
				C182.2112,136.02451,182.17116,136.76425,182.09108,137.72421z M159.92116,127.0743
				c-1.66016,1.42042-2.66992,3.31055-3.03027,5.66993h18.18066c-0.32129-2.31934-1.30078-4.19971-2.94043-5.64014
				c-1.64062-1.43994-3.68066-2.15967-6.12012-2.15967C163.61159,124.94442,161.58034,125.65487,159.92116,127.0743z"/>
			<path class="st5" d="M208.91042,151.34433l-8.2207-11.1001l-8.2793,11.1001h-8.28027l12.47949-16.25977l-11.93945-15.78028
				h8.33984l7.86035,10.50001l7.85938-10.50001h8.10059l-12,15.66016l12.54004,16.37988H208.91042z"/>
			<path class="st6" d="M225.2903,109.34432h3.05957v39.24024h24.17969v2.75977H225.2903V109.34432z"/>
			<path class="st6" d="M278.9895,122.75448c2.0791,1.97998,3.12012,4.88965,3.12012,8.72999v19.85986h-2.88086v-5.58008
				c-1,1.84033-2.45996,3.27002-4.37988,4.29004s-4.2207,1.53027-6.89941,1.53027c-3.48047,0-6.23047-0.81982-8.25-2.46045
				c-2.02051-1.63965-3.03027-3.79932-3.03027-6.47998c0-2.59961,0.92969-4.70996,2.79004-6.32959
				c1.86035-1.62012,4.83008-2.43018,8.91016-2.43018h10.74023v-2.52002c0-2.91943-0.79102-5.13917-2.37012-6.66016
				c-1.58105-1.51953-3.89062-2.27979-6.93066-2.27979c-2.08008,0-4.07031,0.35986-5.96973,1.08008
				c-1.90039,0.71973-3.50977,1.67969-4.83008,2.87988l-1.5-2.16016c1.56055-1.39941,3.43945-2.48975,5.63965-3.27002
				c2.2002-0.77979,4.5-1.16992,6.90039-1.16992C273.92896,119.78426,276.90845,120.7745,278.9895,122.75448z M274.99927,147.32431
				c1.81934-1.2002,3.18945-2.93994,4.11035-5.22021v-5.87988h-10.68066c-3.08008,0-5.30957,0.56055-6.68945,1.68018
				c-1.37988,1.12012-2.07031,2.66064-2.07031,4.62012c0,2.04004,0.75977,3.65039,2.28027,4.82959
				c1.51953,1.18066,3.66016,1.77002,6.41992,1.77002C270.96899,149.12411,273.17896,148.52451,274.99927,147.32431z"/>
			<path class="st6" d="M321.88892,120.0245v31.31983h-2.87988v-6.72021c-1.04102,2.20068-2.58008,3.91064-4.62012,5.13037
				c-2.04004,1.2207-4.44043,1.83008-7.2002,1.83008c-4.08008,0-7.28027-1.14014-9.59961-3.42041
				c-2.32031-2.27979-3.48047-5.55908-3.48047-9.83984V120.0245h3v18.06007c0,3.52002,0.90039,6.2002,2.7002,8.03955
				c1.7998,1.84033,4.33984,2.76025,7.62012,2.76025c3.51953,0,6.30859-1.09961,8.37012-3.2998
				c2.05957-2.19971,3.08984-5.16016,3.08984-8.88037v-16.6797H321.88892z"/>
			<path class="st6" d="M359.20825,123.20419c2.28027,2.28027,3.41992,5.56055,3.41992,9.84034v18.2998h-3v-18.06006
				c0-3.51953-0.89062-6.19971-2.66992-8.04005c-1.78027-1.83936-4.27051-2.75977-7.46973-2.75977
				c-3.68066,0-6.58008,1.10059-8.7002,3.2998c-2.12109,2.2002-3.17969,5.16016-3.17969,8.87989v16.68018h-3V120.0245h2.87988
				v6.77979c1.08008-2.19922,2.68945-3.91943,4.83008-5.16016c2.13867-1.23926,4.66895-1.85986,7.58984-1.85986
				C353.82837,119.78426,356.92798,120.9244,359.20825,123.20419z"/>
			<path class="st6" d="M379.30688,149.54453c-2.40039-1.35938-4.28027-3.24951-5.63965-5.67041
				c-1.36035-2.41943-2.04004-5.14941-2.04004-8.18994c0-3.07959,0.67969-5.8291,2.04004-8.25001
				c1.35938-2.41943,3.23926-4.29932,5.63965-5.63965c2.39941-1.33984,5.11914-2.01025,8.16016-2.01025
				c2.51953,0,4.80957,0.49023,6.87012,1.47021c2.05957,0.98047,3.72852,2.41016,5.00977,4.29004l-2.21973,1.61963
				c-1.12109-1.56006-2.51074-2.72998-4.1709-3.50977c-1.66016-0.78027-3.49023-1.16992-5.48926-1.16992
				c-2.44043,0-4.63086,0.55029-6.57031,1.6499c-1.94043,1.10059-3.45996,2.65039-4.55957,4.64991
				c-1.10059,2.00049-1.65039,4.30029-1.65039,6.8999c0,2.60059,0.5498,4.90039,1.65039,6.90039
				c1.09961,2.00049,2.61914,3.55029,4.55957,4.6499c1.93945,1.10059,4.12988,1.6499,6.57031,1.6499
				c1.99902,0,3.8291-0.39014,5.48926-1.16992c1.66016-0.78027,3.0498-1.9502,4.1709-3.51025l2.21973,1.62012
				c-1.28125,1.88086-2.9502,3.31055-5.00977,4.29004c-2.06055,0.98047-4.35059,1.47021-6.87012,1.47021
				C384.42603,151.58456,381.7063,150.90488,379.30688,149.54453z"/>
			<path class="st6" d="M432.40747,123.20419c2.28027,2.28027,3.41992,5.56055,3.41992,9.84034v18.2998h-3v-18.06006
				c0-3.51953-0.89062-6.19971-2.66992-8.04005c-1.78027-1.83936-4.27051-2.75977-7.46973-2.75977
				c-3.68066,0-6.58008,1.10059-8.7002,3.2998c-2.12109,2.2002-3.17969,5.16016-3.17969,8.87989v16.68018h-3V106.8243h3v19.74023
				c1.08008-2.16016,2.67871-3.83008,4.7998-5.01025c2.11914-1.1792,4.62012-1.77002,7.5-1.77002
				C427.02759,119.78426,430.1272,120.9244,432.40747,123.20419z"/>
			<path class="st6" d="M471.82642,121.8243c2.35938,1.36035,4.20898,3.24023,5.5498,5.64014
				c1.33984,2.39991,2.00977,5.14014,2.00977,8.21973c0,3.08057-0.66992,5.83057-2.00977,8.25
				c-1.34082,2.4209-3.19043,4.30029-5.5498,5.64014c-2.36035,1.34082-5.00098,2.01025-7.91992,2.01025
				c-2.75977,0-5.26074-0.6499-7.5-1.9502c-2.24023-1.29932-3.98047-3.10986-5.21973-5.43018v18.77979h-3V120.0245h2.87988v7.37988
				c1.23926-2.3999,2.98926-4.26953,5.25-5.60986c2.25879-1.33984,4.78906-2.01025,7.58984-2.01025
				C466.82544,119.78426,469.46606,120.46493,471.82642,121.8243z M470.2063,147.20419
				c1.91992-1.11914,3.42969-2.6792,4.53027-4.67969c1.09961-2,1.64941-4.27979,1.64941-6.84033
				c0-2.55908-0.5498-4.83936-1.64941-6.83984c-1.10059-1.99952-2.61035-3.55958-4.53027-4.68018
				c-1.91992-1.11914-4.08008-1.67969-6.47949-1.67969c-2.40039,0-4.55078,0.56055-6.4502,1.67969
				c-1.90039,1.12061-3.40039,2.68066-4.5,4.68018c-1.10059,2.00049-1.65039,4.28076-1.65039,6.83984
				c0,2.56055,0.5498,4.84033,1.65039,6.84033c1.09961,2.00049,2.59961,3.56055,4.5,4.67969
				c1.89941,1.12061,4.0498,1.68018,6.4502,1.68018C466.12622,148.88437,468.28638,148.3248,470.2063,147.20419z"/>
			<path class="st6" d="M508.06567,122.75448c2.0791,1.97998,3.12012,4.88965,3.12012,8.72999v19.85986h-2.88086v-5.58008
				c-1,1.84033-2.45996,3.27002-4.37988,4.29004s-4.2207,1.53027-6.89941,1.53027c-3.48047,0-6.23047-0.81982-8.25-2.46045
				c-2.02051-1.63965-3.03027-3.79932-3.03027-6.47998c0-2.59961,0.92969-4.70996,2.79004-6.32959
				c1.86035-1.62012,4.83008-2.43018,8.91016-2.43018h10.74023v-2.52002c0-2.91943-0.79102-5.13917-2.37012-6.66016
				c-1.58105-1.51953-3.89062-2.27979-6.93066-2.27979c-2.08008,0-4.07031,0.35986-5.96973,1.08008
				c-1.90039,0.71973-3.50977,1.67969-4.83008,2.87988l-1.5-2.16016c1.56055-1.39941,3.43945-2.48975,5.63965-3.27002
				c2.2002-0.77979,4.5-1.16992,6.90039-1.16992C503.00513,119.78426,505.98462,120.7745,508.06567,122.75448z M504.07544,147.32431
				c1.81934-1.2002,3.18945-2.93994,4.11035-5.22021v-5.87988h-10.68066c-3.08008,0-5.30957,0.56055-6.68945,1.68018
				c-1.37988,1.12012-2.07031,2.66064-2.07031,4.62012c0,2.04004,0.75977,3.65039,2.28027,4.82959
				c1.51953,1.18066,3.66016,1.77002,6.41992,1.77002C500.04517,149.12411,502.25513,148.52451,504.07544,147.32431z"/>
			<path class="st6" d="M551.44458,106.8243v44.52003h-2.94043v-7.37988c-1.24023,2.44043-2.98047,4.31982-5.21973,5.63965
				c-2.24023,1.32031-4.78027,1.98047-7.62012,1.98047c-2.91992,0-5.56055-0.67969-7.91992-2.04004
				c-2.36035-1.35938-4.20996-3.24023-5.5498-5.64014c-1.34082-2.3999-2.00977-5.13965-2.00977-8.22021
				c0-3.07959,0.66895-5.8291,2.00977-8.25001c1.33984-2.41943,3.18945-4.29932,5.5498-5.63965
				c2.35938-1.33984,5-2.01025,7.91992-2.01025c2.7998,0,5.31055,0.66016,7.53027,1.97998
				c2.21973,1.32031,3.96875,3.16016,5.25,5.52002V106.8243H551.44458z M542.29419,147.20419
				c1.89941-1.11914,3.39941-2.6792,4.5-4.67969c1.09961-2,1.65039-4.27979,1.65039-6.84033
				c0-2.55908-0.55078-4.83936-1.65039-6.83984c-1.10059-1.99952-2.60059-3.55958-4.5-4.68018
				c-1.90039-1.11914-4.0498-1.67969-6.4502-1.67969c-2.39941,0-4.5498,0.56055-6.44922,1.67969
				c-1.90039,1.12061-3.40039,2.68066-4.5,4.68018c-1.10059,2.00049-1.65039,4.28076-1.65039,6.83984
				c0,2.56055,0.5498,4.84033,1.65039,6.84033c1.09961,2.00049,2.59961,3.56055,4.5,4.67969
				c1.89941,1.12061,4.0498,1.68018,6.44922,1.68018C538.24438,148.88437,540.3938,148.3248,542.29419,147.20419z"/>
		</g>
	</g>
</g>
<g id="rexMarket">
</g>
<g id="rexBank">
</g>
<g id="rexLP">
</g>
<g id="Ricochet">
</g>
</svg>
