<?xml version="1.0" encoding="utf-8"?>
<!-- Generator: Adobe Illustrator 26.0.2, SVG Export Plug-In . SVG Version: 6.00 Build 0)  -->
<svg version="1.1" xmlns="http://www.w3.org/2000/svg" xmlns:xlink="http://www.w3.org/1999/xlink" x="0px" y="0px"
	 viewBox="0 0 680.31494 226.77165" style="enable-background:new 0 0 680.31494 226.77165;" xml:space="preserve">
<style type="text/css">
	.st0{fill:#1D1D1B;}
	.st1{fill:#C5C2C6;}
	.st2{fill:url(#Burn_00000176742165075970149320000016895066773613703585_);}
	.st3{fill:url(#SVGID_1_);}
	.st4{fill:url(#SVGID_00000120534777366869465670000003311417732032975774_);}
	.st5{fill:#969696;}
	.st6{fill:#6194C3;}
	.st7{fill:#FFFFFF;}
	.st8{font-family:'Montserrat-SemiBold';}
	.st9{font-size:60px;}
	.st10{font-family:'Montserrat-Light';}
	.st11{fill:url(#SVGID_00000091003254713080323090000002981175874090482325_);}
	.st12{fill:url(#SVGID_00000029724861568677861690000016209451296253270189_);}
	.st13{fill:url(#SVGID_00000043435262067806332650000004542514827784219549_);}
	.st14{fill:url(#SVGID_00000117670210738143698160000015297949395889409679_);}
	.st15{fill:url(#SVGID_00000133491622844535169520000012205908779164626617_);}
	.st16{fill:url(#SVGID_00000018918086161206317270000017032149348881086880_);}
	.st17{fill:url(#SVGID_00000125572394548364413150000002512564940444004743_);}
	.st18{fill:url(#Burn_00000148646268554689490710000006139518470392194977_);}
</style>
<g id="rexLaunchpad">
	<rect id="BlackBG" class="st0" width="680.31494" height="226.77165"/>
	<g id="rexLaunchpad-White">
		<g id="redLaunchpad-Symbol_00000152973071484979652560000012862562595149803455_">
			<g id="R_00000044140110267054745710000015858201504266639762_">
				<path id="R-minor_00000103264433715295838890000014247402285892407424_" class="st7" d="M171.58473,94.47499h-3.08907v-9.49351
					c0,0,3.08955,0.202,3.08955,2.03489L171.58473,94.47499z"/>
				<path id="R-major_00000024704250536648102420000007181033153588797873_" class="st7" d="M168.66937,75.72869h7.54399
					c2.14209,0,5.99547,0.72909,5.99547,5.83219c0,5.20734-4.99887,5.41579-4.99887,5.41579l4.72243,7.49832h-3.12181
					l-4.09908-6.45705v-3.03645c0,0,4.47826,0.64124,4.47826-3.52383c0-3.12679-3.12679-3.12679-3.12679-3.12679l-5.8322-0.20795
					C170.23077,78.12291,168.66937,77.7075,168.66937,75.72869z"/>
			</g>
			<g id="Bullet_00000141431483903216666220000001967728727106590891_">
				<g id="Black_00000039852875937949650870000016213662473643779517_">
					<path id="Burn_00000160888162542699328230000006173360786305036704_" class="st7" d="M167.12694,69.82426l-30.26871,14.83423
						l10.41505,2.21405l-20.81447,22.11085l30.60765-2.95031l-4.49712,9.72847l29.7149-15.17516
						c8.49472-4.18558,11.98798-14.465,7.8024-22.95972C185.55409,68.42771,174.00533,66.35513,167.12694,69.82426z
						 M180.61743,97.20353c-6.62642,3.26502-14.64502,0.54006-17.91003-6.08636c-3.26503-6.62643-0.54007-14.64503,6.08636-17.91005
						c6.62643-3.26501,14.64503-0.54005,17.91005,6.08637S187.24387,93.93851,180.61743,97.20353z"/>
				</g>
				<g>
					<path class="st7" d="M212.55997,66.42283c2.16484,4.53293,0.506,10.00024,0.53973,9.94366
						c8.28223-11.75188,7.25266-17.42553-9.37759-16.79198C204.19722,59.71194,210.52953,62.17132,212.55997,66.42283z"/>
					<path class="st7" d="M197.45322,60.01196c-9.27657,0.85965-17.69823,3.81424-23.56305,6.40338
						c6.88107-0.55279,14.88638,2.54007,18.57347,10.02311c3.27667,6.65008,2.17155,14.31502-2.19601,19.72883
						c6.01622-3.401,13.43265-8.50915,19.50737-15.50202c1.6264-5.11191,1.66539-9.30054,0.10425-12.52529
						C207.82854,63.9031,203.05257,61.48788,197.45322,60.01196z"/>
				</g>
			</g>
		</g>
		<text transform="matrix(1 0 0 1 122.32134 151.34447)"><tspan x="0" y="0" class="st7 st8 st9">rex</tspan><tspan x="96.89941" y="0" class="st7 st10 st9">Launchpad</tspan></text>
	</g>
</g>
<g id="rexMarket">
</g>
<g id="rexBank">
</g>
<g id="rexLP">
</g>
<g id="Ricochet">
</g>
</svg>
